<svg width="1490" height="351" viewBox="0 0 1490 351" fill="none" xmlns="http://www.w3.org/2000/svg">
<path d="M1488.96 0H1V350.203H1488.96V0Z" fill="#29295E"/>
<path d="M1488.96 162.362C1488.96 160.997 1296.64 132.776 1202.43 141.582C1108.23 150.388 968.215 182.774 917.221 175.032C866.226 167.291 782.396 137.732 736.221 145.473C690.046 153.215 588.986 175.729 524.079 172.22C459.172 168.711 387.78 140.544 326.573 142.661C265.366 144.777 58.3704 173.585 1 161.666V194.065C1 194.065 68.5966 162.239 119.236 162.239C169.876 162.239 321.794 222.491 369.266 220.374C416.738 218.258 473.958 188.426 526.577 188.426C579.196 188.426 782.806 218.244 818.672 216.115C854.539 213.985 993.787 174.582 1064.43 178.841C1135.07 183.101 1244.35 213.985 1302.61 215.05C1360.87 216.115 1488.92 184.166 1488.92 184.166L1488.96 162.362Z" fill="#29295E" stroke="white" stroke-opacity="0.07" stroke-width="2" stroke-linecap="round" stroke-linejoin="round"/>
<path d="M1488.96 78.9433C1488.96 77.578 1296.64 49.357 1202.43 58.1633C1108.23 66.9696 968.215 99.3548 917.221 91.6681C866.226 83.9813 782.396 54.3677 736.221 62.109C690.046 69.8503 591.744 93.8662 526.837 90.3027C461.93 86.7393 387.78 57.1256 326.573 59.2419C265.366 61.3581 58.3705 90.2071 1 78.247V65.9592C1 63.5562 193.318 15.4426 287.511 30.461C381.704 45.4795 521.73 100.761 572.711 87.5721C623.692 74.3832 707.549 23.9076 753.711 37.0555C799.872 50.2035 900.973 88.7463 965.921 82.7389C1030.87 76.7316 1102.22 28.6862 1163.41 32.2224C1224.61 35.7585 1431.63 85.0736 1489 64.6621L1488.96 78.9433Z" fill="#29295E" stroke="white" stroke-opacity="0.07" stroke-width="2" stroke-linecap="round" stroke-linejoin="round"/>
<path d="M1 325.26C1 322.857 193.318 274.743 287.511 289.762C381.704 304.78 521.73 360.062 572.725 346.859C623.719 333.657 707.563 283.181 753.724 296.343C799.886 309.504 900.973 348.074 965.921 342.081C1030.87 336.087 1102.22 288.014 1163.41 291.564C1224.61 295.114 1431.63 344.429 1489 324.004V263.835C1489 263.835 1360.96 295.769 1302.69 294.704C1244.42 293.639 1135.22 262.77 1064.47 258.51C993.719 254.25 854.539 293.639 818.713 295.769C782.887 297.899 579.237 268.094 526.618 268.094C473.999 268.094 416.779 297.899 369.307 300.029C321.835 302.159 169.971 245.73 119.277 245.73C68.583 245.73 1.04096 273.733 1.04096 273.733L1 325.26Z" fill="#29295E" stroke="white" stroke-opacity="0.07" stroke-width="2" stroke-linecap="round" stroke-linejoin="round"/>
</svg>
