<svg width="1244" height="113" viewBox="0 0 1244 113" fill="none" xmlns="http://www.w3.org/2000/svg">
<path d="M78.9365 1.99999H79.9365V0.999992H78.9365V1.99999ZM0.936512 1.99999V0.999992H-0.063488V1.99999H0.936512ZM0.936512 93H-0.063488V94H0.936512V93ZM13.9365 93V94H14.9365V93H13.9365ZM13.9365 14.48V13.48H12.9365V14.48H13.9365ZM65.9365 14.48H66.9365V13.48H65.9365V14.48ZM65.9365 93H64.9365V94H65.9365V93ZM78.9365 93V94H79.9365V93H78.9365ZM78.9365 0.999992H0.936512V2.99999H78.9365V0.999992ZM-0.063488 1.99999V93H1.93651V1.99999H-0.063488ZM0.936512 94H13.9365V92H0.936512V94ZM14.9365 93V14.48H12.9365V93H14.9365ZM13.9365 15.48H65.9365V13.48H13.9365V15.48ZM64.9365 14.48V93H66.9365V14.48H64.9365ZM65.9365 94H78.9365V92H65.9365V94ZM79.9365 93V1.99999H77.9365V93H79.9365ZM103.022 1.99999V0.999992H102.022V1.99999H103.022ZM103.022 93H102.022V94H103.022V93ZM116.022 93V94H117.022V93H116.022ZM116.022 55.3V54.3H115.022V55.3H116.022ZM116.022 43.21H115.022V44.21H116.022V43.21ZM116.022 14.22V13.22H115.022V14.22H116.022ZM142.802 0.999992H103.022V2.99999H142.802V0.999992ZM102.022 1.99999V93H104.022V1.99999H102.022ZM103.022 94H116.022V92H103.022V94ZM117.022 93V55.3H115.022V93H117.022ZM116.022 56.3H142.802V54.3H116.022V56.3ZM142.802 56.3C152.371 56.3 159.918 53.3388 165.077 48.3488C170.237 43.359 172.922 36.4245 172.922 28.65H170.922C170.922 35.9555 168.407 42.346 163.687 46.9112C158.967 51.4762 151.953 54.3 142.802 54.3V56.3ZM172.922 28.65C172.922 20.8755 170.237 13.941 165.077 8.95116C159.918 3.96122 152.371 0.999992 142.802 0.999992V2.99999C151.953 2.99999 158.967 5.82377 163.687 10.3888C168.407 14.954 170.922 21.3445 170.922 28.65H172.922ZM142.412 42.21H116.022V44.21H142.412V42.21ZM117.022 43.21V14.22H115.022V43.21H117.022ZM116.022 15.22H142.412V13.22H116.022V15.22ZM142.412 15.22C147.47 15.22 151.155 16.4223 153.57 18.6164C155.968 20.7952 157.272 24.0972 157.272 28.65H159.272C159.272 23.7128 157.846 19.7998 154.915 17.1361C152 14.4877 147.754 13.22 142.412 13.22V15.22ZM157.272 28.65C157.272 33.2032 155.967 36.5409 153.565 38.7531C151.148 40.9782 147.464 42.21 142.412 42.21V44.21C147.76 44.21 152.006 42.9068 154.919 40.2244C157.847 37.5291 159.272 33.5868 159.272 28.65H157.272ZM249.323 14.22V15.22H250.323V14.22H249.323ZM249.323 1.99999H250.323V0.999992H249.323V1.99999ZM188.223 1.99999V0.999992H187.223V1.99999H188.223ZM188.223 93H187.223V94H188.223V93ZM249.323 93V94H250.323V93H249.323ZM249.323 80.78H250.323V79.78H249.323V80.78ZM201.223 80.78H200.223V81.78H201.223V80.78ZM201.223 53.61V52.61H200.223V53.61H201.223ZM245.423 53.61V54.61H246.423V53.61H245.423ZM245.423 41.39H246.423V40.39H245.423V41.39ZM201.223 41.39H200.223V42.39H201.223V41.39ZM201.223 14.22V13.22H200.223V14.22H201.223ZM250.323 14.22V1.99999H248.323V14.22H250.323ZM249.323 0.999992H188.223V2.99999H249.323V0.999992ZM187.223 1.99999V93H189.223V1.99999H187.223ZM188.223 94H249.323V92H188.223V94ZM250.323 93V80.78H248.323V93H250.323ZM249.323 79.78H201.223V81.78H249.323V79.78ZM202.223 80.78V53.61H200.223V80.78H202.223ZM201.223 54.61H245.423V52.61H201.223V54.61ZM246.423 53.61V41.39H244.423V53.61H246.423ZM245.423 40.39H201.223V42.39H245.423V40.39ZM202.223 41.39V14.22H200.223V41.39H202.223ZM201.223 15.22H249.323V13.22H201.223V15.22ZM269.488 93H268.488V94H269.488V93ZM283.788 93V94H284.305L284.604 93.5786L283.788 93ZM337.088 17.86H338.088V14.7218L336.272 17.2814L337.088 17.86ZM337.088 93H336.088V94H337.088V93ZM350.088 93V94H351.088V93H350.088ZM350.088 1.99999H351.088V0.999992H350.088V1.99999ZM334.098 1.99999V0.999992H333.58L333.281 1.42371L334.098 1.99999ZM282.488 75.19H281.488V78.3434L283.305 75.7663L282.488 75.19ZM282.488 1.99999H283.488V0.999992H282.488V1.99999ZM269.488 1.99999V0.999992H268.488V1.99999H269.488ZM269.488 94H283.788V92H269.488V94ZM284.604 93.5786L337.904 18.4386L336.272 17.2814L282.972 92.4214L284.604 93.5786ZM336.088 17.86V93H338.088V17.86H336.088ZM337.088 94H350.088V92H337.088V94ZM351.088 93V1.99999H349.088V93H351.088ZM350.088 0.999992H334.098V2.99999H350.088V0.999992ZM333.281 1.42371L281.671 74.6137L283.305 75.7663L334.915 2.57628L333.281 1.42371ZM283.488 75.19V1.99999H281.488V75.19H283.488ZM282.488 0.999992H269.488V2.99999H282.488V0.999992ZM268.488 1.99999V93H270.488V1.99999H268.488ZM482.013 1.99999H483.013V0.999992H482.013V1.99999ZM463.423 1.99999V0.999992H462.784L462.516 1.57916L463.423 1.99999ZM428.323 77.66L427.416 78.0821L428.324 80.0326L429.23 78.0808L428.323 77.66ZM393.093 1.99999L393.999 1.57788L393.73 0.999992H393.093V1.99999ZM374.113 1.99999V0.999992H373.113V1.99999H374.113ZM374.113 93H373.113V94H374.113V93ZM387.113 93V94H388.113V93H387.113ZM387.113 18.9L388.02 18.4797L386.113 18.9H387.113ZM421.433 93L420.525 93.4203L420.794 94H421.433V93ZM434.433 93V94H435.072L435.34 93.4199L434.433 93ZM469.013 18.25H470.013L468.105 17.8301L469.013 18.25ZM469.013 93H468.013V94H469.013V93ZM482.013 93V94H483.013V93H482.013ZM482.013 0.999992H463.423V2.99999H482.013V0.999992ZM462.516 1.57916L427.416 77.2392L429.23 78.0808L464.33 2.42083L462.516 1.57916ZM429.229 77.2379L393.999 1.57788L392.186 2.42211L427.416 78.0821L429.229 77.2379ZM393.093 0.999992H374.113V2.99999H393.093V0.999992ZM373.113 1.99999V93H375.113V1.99999H373.113ZM374.113 94H387.113V92H374.113V94ZM388.113 93V18.9H386.113V93H388.113ZM386.205 19.3203L420.525 93.4203L422.34 92.5797L388.02 18.4797L386.205 19.3203ZM421.433 94H434.433V92H421.433V94ZM435.34 93.4199L469.92 18.6699L468.105 17.8301L433.525 92.5801L435.34 93.4199ZM468.013 18.25V93H470.013V18.25H468.013ZM469.013 94H482.013V92H469.013V94ZM483.013 93V1.99999H481.013V93H483.013ZM573.502 1.99999V0.999992H572.891L572.612 1.54408L573.502 1.99999ZM543.602 60.37L542.726 60.852L543.634 62.5019L544.492 60.8259L543.602 60.37ZM511.492 1.99999L512.368 1.518L512.083 0.999992H511.492V1.99999ZM495.632 1.99999V0.999992H493.917L494.762 2.49273L495.632 1.99999ZM536.192 73.63L537.076 74.0984L537.332 73.6142L537.062 73.1373L536.192 73.63ZM525.922 93L525.039 92.5316L524.26 94H525.922V93ZM540.872 93V94H541.479L541.759 93.4623L540.872 93ZM588.322 1.99999L589.209 2.46235L589.971 0.999992H588.322V1.99999ZM572.612 1.54408L542.712 59.9141L544.492 60.8259L574.392 2.45591L572.612 1.54408ZM544.478 59.888L512.368 1.518L510.616 2.48199L542.726 60.852L544.478 59.888ZM511.492 0.999992H495.632V2.99999H511.492V0.999992ZM494.762 2.49273L535.322 74.1227L537.062 73.1373L496.502 1.50726L494.762 2.49273ZM535.309 73.1616L525.039 92.5316L526.806 93.4684L537.076 74.0984L535.309 73.1616ZM525.922 94H540.872V92H525.922V94ZM541.759 93.4623L589.209 2.46235L587.436 1.53764L539.986 92.5377L541.759 93.4623ZM588.322 0.999992H573.502V2.99999H588.322V0.999992ZM724.478 80.52H723.478V81.52H724.478V80.52ZM724.478 1.99999H725.478V0.999992H724.478V1.99999ZM711.478 1.99999V0.999992H710.478V1.99999H711.478ZM711.478 80.52V81.52H712.478V80.52H711.478ZM669.878 80.52H668.878V81.52H669.878V80.52ZM669.878 1.99999H670.878V0.999992H669.878V1.99999ZM656.878 1.99999V0.999992H655.878V1.99999H656.878ZM656.878 80.52V81.52H657.878V80.52H656.878ZM615.278 80.52H614.278V81.52H615.278V80.52ZM615.278 1.99999H616.278V0.999992H615.278V1.99999ZM602.278 1.99999V0.999992H601.278V1.99999H602.278ZM602.278 93H601.278V94H602.278V93ZM722.398 93H723.398V92H722.398V93ZM722.398 112.5H721.398V113.5H722.398V112.5ZM734.878 112.5V113.5H735.878V112.5H734.878ZM734.878 80.52H735.878V79.52H734.878V80.52ZM725.478 80.52V1.99999H723.478V80.52H725.478ZM724.478 0.999992H711.478V2.99999H724.478V0.999992ZM710.478 1.99999V80.52H712.478V1.99999H710.478ZM711.478 79.52H669.878V81.52H711.478V79.52ZM670.878 80.52V1.99999H668.878V80.52H670.878ZM669.878 0.999992H656.878V2.99999H669.878V0.999992ZM655.878 1.99999V80.52H657.878V1.99999H655.878ZM656.878 79.52H615.278V81.52H656.878V79.52ZM616.278 80.52V1.99999H614.278V80.52H616.278ZM615.278 0.999992H602.278V2.99999H615.278V0.999992ZM601.278 1.99999V93H603.278V1.99999H601.278ZM602.278 94H722.398V92H602.278V94ZM721.398 93V112.5H723.398V93H721.398ZM722.398 113.5H734.878V111.5H722.398V113.5ZM735.878 112.5V80.52H733.878V112.5H735.878ZM734.878 79.52H724.478V81.52H734.878V79.52ZM811.547 14.22V15.22H812.547V14.22H811.547ZM811.547 1.99999H812.547V0.999992H811.547V1.99999ZM750.447 1.99999V0.999992H749.447V1.99999H750.447ZM750.447 93H749.447V94H750.447V93ZM811.547 93V94H812.547V93H811.547ZM811.547 80.78H812.547V79.78H811.547V80.78ZM763.447 80.78H762.447V81.78H763.447V80.78ZM763.447 53.61V52.61H762.447V53.61H763.447ZM807.647 53.61V54.61H808.647V53.61H807.647ZM807.647 41.39H808.647V40.39H807.647V41.39ZM763.447 41.39H762.447V42.39H763.447V41.39ZM763.447 14.22V13.22H762.447V14.22H763.447ZM812.547 14.22V1.99999H810.547V14.22H812.547ZM811.547 0.999992H750.447V2.99999H811.547V0.999992ZM749.447 1.99999V93H751.447V1.99999H749.447ZM750.447 94H811.547V92H750.447V94ZM812.547 93V80.78H810.547V93H812.547ZM811.547 79.78H763.447V81.78H811.547V79.78ZM764.447 80.78V53.61H762.447V80.78H764.447ZM763.447 54.61H807.647V52.61H763.447V54.61ZM808.647 53.61V41.39H806.647V53.61H808.647ZM807.647 40.39H763.447V42.39H807.647V40.39ZM764.447 41.39V14.22H762.447V41.39H764.447ZM763.447 15.22H811.547V13.22H763.447V15.22ZM913.024 63.1L913.977 63.4024L914.39 62.1H913.024V63.1ZM898.594 63.1V62.1H897.956L897.687 62.6783L898.594 63.1ZM898.594 31.9L897.687 32.3217L897.956 32.9H898.594V31.9ZM913.024 31.9V32.9H914.39L913.977 31.5976L913.024 31.9ZM822.324 47.5C822.324 74.4386 843.048 95.3 869.994 95.3V93.3C844.16 93.3 824.324 73.3414 824.324 47.5H822.324ZM869.994 95.3C890.574 95.3 907.863 82.6731 913.977 63.4024L912.07 62.7976C906.224 81.2269 889.713 93.3 869.994 93.3V95.3ZM913.024 62.1H898.594V64.1H913.024V62.1ZM897.687 62.6783C892.629 73.5536 883.204 80.82 869.994 80.82V82.82C884.083 82.82 894.159 75.0064 899.5 63.5217L897.687 62.6783ZM869.994 80.82C851.864 80.82 837.974 66.3562 837.974 47.5H835.974C835.974 67.3838 850.684 82.82 869.994 82.82V80.82ZM837.974 47.5C837.974 28.6438 851.864 14.18 869.994 14.18V12.18C850.684 12.18 835.974 27.6162 835.974 47.5H837.974ZM869.994 14.18C883.204 14.18 892.629 21.4464 897.687 32.3217L899.5 31.4783C894.159 19.9936 884.083 12.18 869.994 12.18V14.18ZM898.594 32.9H913.024V30.9H898.594V32.9ZM913.977 31.5976C907.863 12.3269 890.574 -0.300005 869.994 -0.300005V1.7C889.713 1.7 906.224 13.7731 912.07 32.2024L913.977 31.5976ZM869.994 -0.300005C843.048 -0.300005 822.324 20.5614 822.324 47.5H824.324C824.324 21.6586 844.16 1.7 869.994 1.7V-0.300005ZM1052.06 1.99999H1053.06V0.999992H1052.06V1.99999ZM929.863 1.99999V0.999992H928.863V1.99999H929.863ZM929.863 93H928.863V94H929.863V93ZM942.863 93V94H943.863V93H942.863ZM942.863 14.48V13.48H941.863V14.48H942.863ZM984.463 14.48H985.463V13.48H984.463V14.48ZM984.463 93H983.463V94H984.463V93ZM997.463 93V94H998.463V93H997.463ZM997.463 14.48V13.48H996.463V14.48H997.463ZM1039.06 14.48H1040.06V13.48H1039.06V14.48ZM1039.06 93H1038.06V94H1039.06V93ZM1052.06 93V94H1053.06V93H1052.06ZM1052.06 0.999992H929.863V2.99999H1052.06V0.999992ZM928.863 1.99999V93H930.863V1.99999H928.863ZM929.863 94H942.863V92H929.863V94ZM943.863 93V14.48H941.863V93H943.863ZM942.863 15.48H984.463V13.48H942.863V15.48ZM983.463 14.48V93H985.463V14.48H983.463ZM984.463 94H997.463V92H984.463V94ZM998.463 93V14.48H996.463V93H998.463ZM997.463 15.48H1039.06V13.48H997.463V15.48ZM1038.06 14.48V93H1040.06V14.48H1038.06ZM1039.06 94H1052.06V92H1039.06V94ZM1053.06 93V1.99999H1051.06V93H1053.06ZM1133.46 46.59L1132.98 45.7132L1131.34 46.6114L1132.99 47.4763L1133.46 46.59ZM1076.13 1.99999V0.999992H1075.13V1.99999H1076.13ZM1076.13 93H1075.13V94H1076.13V93ZM1089.13 41.78H1088.13V42.78H1089.13V41.78ZM1089.13 13.96V12.96H1088.13V13.96H1089.13ZM1089.13 81.04H1088.13V82.04H1089.13V81.04ZM1089.13 53.09V52.09H1088.13V53.09H1089.13ZM1133.94 47.4668C1142.35 42.8524 1146.03 35.3442 1146.03 26.7H1144.03C1144.03 34.6958 1140.68 41.4876 1132.98 45.7132L1133.94 47.4668ZM1146.03 26.7C1146.03 19.4935 1143.4 13.043 1138.38 8.3998C1133.36 3.76005 1126.05 0.999992 1116.82 0.999992V2.99999C1125.65 2.99999 1132.45 5.63494 1137.02 9.86769C1141.59 14.097 1144.03 19.9965 1144.03 26.7H1146.03ZM1116.82 0.999992H1076.13V2.99999H1116.82V0.999992ZM1075.13 1.99999V93H1077.13V1.99999H1075.13ZM1076.13 94H1116.95V92H1076.13V94ZM1116.95 94C1126.57 94 1134.18 91.1434 1139.39 86.3241C1144.6 81.5009 1147.33 74.7896 1147.33 67.26H1145.33C1145.33 74.2904 1142.79 80.4491 1138.03 84.8559C1133.26 89.2666 1126.18 92 1116.95 92V94ZM1147.33 67.26C1147.33 58.0437 1142.96 50.4242 1133.92 45.7037L1132.99 47.4763C1141.38 51.8558 1145.33 58.7963 1145.33 67.26H1147.33ZM1090.13 41.78V13.96H1088.13V41.78H1090.13ZM1089.13 14.96H1116.17V12.96H1089.13V14.96ZM1116.17 14.96C1121.24 14.96 1124.9 16.0731 1127.28 18.1012C1129.64 20.1045 1130.9 23.1374 1130.9 27.35H1132.9C1132.9 22.7226 1131.49 19.0605 1128.58 16.5788C1125.7 14.1219 1121.49 12.96 1116.17 12.96V14.96ZM1130.9 27.35C1130.9 31.7728 1129.63 35.0813 1127.25 37.2947C1124.87 39.5188 1121.21 40.78 1116.17 40.78V42.78C1121.52 42.78 1125.74 41.4412 1128.61 38.7578C1131.51 36.0637 1132.9 32.1572 1132.9 27.35H1130.9ZM1116.17 40.78H1089.13V42.78H1116.17V40.78ZM1116.3 80.04H1089.13V82.04H1116.3V80.04ZM1090.13 81.04V53.09H1088.13V81.04H1090.13ZM1089.13 54.09H1116.3V52.09H1089.13V54.09ZM1116.3 54.09C1121.57 54.09 1125.4 55.2362 1127.89 57.3191C1130.36 59.375 1131.68 62.4727 1131.68 66.74H1133.68C1133.68 62.0373 1132.2 58.31 1129.17 55.7834C1126.18 53.2838 1121.82 52.09 1116.3 52.09V54.09ZM1131.68 66.74C1131.68 71.1479 1130.35 74.4169 1127.87 76.6012C1125.37 78.8041 1121.55 80.04 1116.3 80.04V82.04C1121.83 82.04 1126.2 80.7409 1129.2 78.1013C1132.21 75.4431 1133.68 71.5621 1133.68 66.74H1131.68ZM1229.92 93L1228.97 93.2983L1229.19 94H1229.92V93ZM1243.83 93V94H1245.2L1244.79 92.6989L1243.83 93ZM1215.1 1.99999L1216.06 1.69893L1215.84 0.999992H1215.1V1.99999ZM1184.16 1.99999V0.999992H1183.43L1183.21 1.69893L1184.16 1.99999ZM1155.43 93L1154.48 92.6989L1154.07 94H1155.43V93ZM1168.82 93V94H1169.56L1169.78 93.2983L1168.82 93ZM1175.32 72.2V71.2H1174.59L1174.37 71.9017L1175.32 72.2ZM1223.42 72.2L1224.38 71.9017L1224.16 71.2H1223.42V72.2ZM1179.09 60.24L1178.14 59.9399L1177.73 61.24H1179.09V60.24ZM1193.65 13.96V12.96H1192.92L1192.7 13.6599L1193.65 13.96ZM1205.35 13.96L1206.31 13.6623L1206.09 12.96H1205.35V13.96ZM1219.78 60.24V61.24H1221.14L1220.74 59.9423L1219.78 60.24ZM1229.92 94H1243.83V92H1229.92V94ZM1244.79 92.6989L1216.06 1.69893L1214.15 2.30106L1242.88 93.3011L1244.79 92.6989ZM1215.1 0.999992H1184.16V2.99999H1215.1V0.999992ZM1183.21 1.69893L1154.48 92.6989L1156.39 93.3011L1185.12 2.30106L1183.21 1.69893ZM1155.43 94H1168.82V92H1155.43V94ZM1169.78 93.2983L1176.28 72.4983L1174.37 71.9017L1167.87 92.7017L1169.78 93.2983ZM1175.32 73.2H1223.42V71.2H1175.32V73.2ZM1222.47 72.4983L1228.97 93.2983L1230.88 92.7017L1224.38 71.9017L1222.47 72.4983ZM1180.05 60.5401L1194.61 14.2601L1192.7 13.6599L1178.14 59.9399L1180.05 60.5401ZM1193.65 14.96H1205.35V12.96H1193.65V14.96ZM1204.4 14.2577L1218.83 60.5377L1220.74 59.9423L1206.31 13.6623L1204.4 14.2577ZM1219.78 59.24H1179.09V61.24H1219.78V59.24Z" fill="#40002E"/>
</svg>
