<svg width="240" height="147" viewBox="0 0 240 147" fill="none" xmlns="http://www.w3.org/2000/svg">
<path fill-rule="evenodd" clip-rule="evenodd" d="M0.00146484 100.492C0.00146484 100.492 1.59422 95.742 2.61877 92.9643C6.22708 83.1815 12.0302 69.9594 20.8154 56.5634C38.4053 29.7414 69.7226 0 120.001 0C170.279 0 201.597 29.7414 219.187 56.5634C227.972 69.9594 233.775 83.1815 237.383 92.9643C238.408 95.742 240 100.492 240 100.492C240 100.492 240 143.117 240 147H0.00198712C0.00198712 131.496 0.00146484 100.492 0.00146484 100.492ZM190.419 100.492C187.868 94.7555 184.589 88.4067 180.474 82.1315C167.836 62.8603 149.084 46.5085 120.001 46.5085C90.9177 46.5085 72.1663 62.8603 59.5282 82.1315C55.4129 88.4067 52.1339 94.7555 49.5829 100.492H190.419Z" fill="#BA99C6"/>
</svg>
