<svg width="16" height="16" viewBox="0 0 16 16" fill="none" xmlns="http://www.w3.org/2000/svg">
<path fill-rule="evenodd" clip-rule="evenodd" d="M6.2447 0.432529C5.32553 1.63852 6.18766 4.45251 6.73361 5.70876C6.4207 6.99516 5.0387 9.92974 4.38682 11.2362C3.78382 11.4121 2.24047 12.0503 0.89106 13.196C-0.45835 14.3417 0.0191583 15.3818 0.426589 15.7587C2.83528 16.8916 4.68148 13.7501 5.5667 12.2437C5.74161 11.9461 5.879 11.7123 5.97579 11.588C6.50382 11.186 8.99893 10.6667 10.1805 10.4574C13.334 13.196 15.9986 12.5679 15.9986 11.0855C16.093 8.61152 11.4261 9.34532 10.5088 9.48954L10.5087 9.48955L10.5084 9.4896L10.5082 9.48963C10.4756 9.49477 10.4477 9.49915 10.4249 9.50261C8.93863 7.95492 8.29 6.764 8.15147 6.362C8.65995 4.75401 8.72787 4.24071 8.8604 2.84452C9.05597 0.78427 7.49144 -0.798597 6.2447 0.432529ZM7.12475 4.32688C7.44255 3.16276 7.88746 0.84457 7.12475 0.88477C6.36204 0.92497 6.80695 3.19626 7.12475 4.32688ZM6.58694 10.4071C6.62606 10.3267 7.38551 8.44737 7.76034 7.51775C7.90702 7.84437 8.76262 8.97499 9.34932 9.70361C8.32994 9.94233 7.60343 10.153 7.15183 10.284C6.74786 10.4012 6.56386 10.4546 6.58694 10.4071ZM3.67789 12.4925C3.06674 13.5142 1.67333 15.4572 0.988845 15.0552C0.304361 14.6532 1.74667 13.5477 2.55338 13.0452C2.79784 12.9029 3.36498 12.593 3.67789 12.4925ZM14.4829 10.9599C13.9696 11.8895 12 10.8426 11.2805 10.2564C12.0547 10.114 13.7398 9.95486 14.2874 10.4574C14.4829 10.583 14.4829 10.8091 14.4829 10.9599Z" fill="white"/>
</svg>
