<svg width="132" height="132" viewBox="0 0 132 132" fill="none" xmlns="http://www.w3.org/2000/svg">
<circle opacity="0.8" cx="66" cy="66" r="66" fill="#EC6A55"/>
<path fill-rule="evenodd" clip-rule="evenodd" d="M66 105.5C66 105.5 94 77 94 54.8758C94 39.4804 81.464 27 66 27C50.536 27 38 39.4804 38 54.8758C38 77 66 105.5 66 105.5ZM60.5 48C60.5 44.9624 62.9624 42.5 66 42.5C69.0376 42.5 71.5 44.9624 71.5 48V50H60.5V48ZM57.5 50H56C55.4477 50 55 50.4477 55 51V67C55 68.1046 55.8954 69 57 69H75C76.1046 69 77 68.1046 77 67V51C77 50.4477 76.5523 50 76 50H74.5V48C74.5 43.3056 70.6944 39.5 66 39.5C61.3056 39.5 57.5 43.3056 57.5 48V50ZM69 57C69 58.1104 68.3967 59.0799 67.5 59.5987C67.3348 59.6942 67.9482 61.3563 68.44 62.6099C68.7005 63.274 68.2142 64 67.5008 64H64.5724C63.8402 64 63.3518 63.2376 63.6383 62.5638C64.1588 61.3396 64.7676 59.7535 64.5 59.5987C63.6033 59.0799 63 58.1104 63 57C63 55.3431 64.3431 54 66 54C67.6569 54 69 55.3431 69 57Z" fill="white"/>
</svg>
