<svg width="132" height="132" viewBox="0 0 132 132" fill="none" xmlns="http://www.w3.org/2000/svg">
<circle cx="66" cy="66" r="66" fill="#45B188"/>
<path fill-rule="evenodd" clip-rule="evenodd" d="M66.4542 38.2261C66.164 38.0814 65.8382 38.087 65.5524 38.2401C63.2745 39.4602 52.7188 45.0943 43.5538 49.6586C43.2138 49.828 42.9994 50.1843 43.003 50.5642C43.277 79.7303 62.536 91.1601 65.5931 92.7915C65.8577 92.9326 66.1423 92.9326 66.4069 92.7915C69.465 91.1595 88.7361 79.7225 88.9973 50.5342C89.0006 50.17 88.8045 49.826 88.4851 49.6508C80.1365 45.0701 68.8406 39.4158 66.4542 38.2261ZM50.9005 54.0538C57.3474 50.8839 63.6314 48.0708 65.531 47.0686C65.8285 46.9116 66.1756 46.9067 66.4775 47.0552C68.4694 48.0352 75.2426 50.8629 81.1391 54.0455C81.4747 54.2266 81.6827 54.5842 81.6777 54.9633C81.4087 75.3553 69.0346 82.5508 66.4339 83.9561C66.1602 84.104 65.8398 84.104 65.5661 83.9561C62.9667 82.5515 50.6048 75.3636 50.3227 54.9941C50.3172 54.599 50.5437 54.2292 50.9005 54.0538Z" fill="white"/>
<path d="M66 49L52.5736 55.3296C52.2234 55.4947 51.9988 55.8509 52.0057 56.238C52.2569 70.3875 60.8273 79.2905 66 82V49Z" fill="white"/>
</svg>
