<svg width="132" height="132" viewBox="0 0 132 132" fill="none" xmlns="http://www.w3.org/2000/svg">
<circle cx="66" cy="66" r="66" fill="#BA99C6"/>
<path d="M65.0489 20.927C65.3483 20.0057 66.6517 20.0057 66.9511 20.9271L69.5922 29.0557C69.7261 29.4678 70.1101 29.7467 70.5433 29.7467L79.0903 29.7467C80.059 29.7467 80.4618 30.9863 79.6781 31.5557L72.7634 36.5795C72.4129 36.8342 72.2663 37.2855 72.4001 37.6976L75.0413 45.8262C75.3406 46.7475 74.2862 47.5137 73.5025 46.9443L66.5878 41.9205C66.2373 41.6658 65.7627 41.6658 65.4122 41.9205L58.4975 46.9443C57.7138 47.5137 56.6594 46.7475 56.9587 45.8262L59.5999 37.6976C59.7337 37.2855 59.5871 36.8342 59.2366 36.5795L52.3219 31.5557C51.5382 30.9863 51.941 29.7467 52.9097 29.7467L61.4567 29.7467C61.8899 29.7467 62.2739 29.4678 62.4078 29.0557L65.0489 20.927Z" fill="white"/>
<path d="M94.0489 45.9271C94.3483 45.0057 95.6517 45.0057 95.9511 45.9271L97.4697 50.6008C97.6035 51.0128 97.9875 51.2918 98.4207 51.2918H103.335C104.304 51.2918 104.706 52.5314 103.923 53.1008L99.947 55.9894C99.5966 56.244 99.4499 56.6954 99.5838 57.1074L101.102 61.7812C101.402 62.7025 100.347 63.4686 99.5635 62.8992L95.5878 60.0106C95.2373 59.756 94.7627 59.756 94.4122 60.0106L90.4365 62.8992C89.6528 63.4686 88.5983 62.7025 88.8976 61.7812L90.4162 57.1074C90.5501 56.6954 90.4034 56.244 90.053 55.9894L86.0772 53.1008C85.2935 52.5314 85.6963 51.2918 86.665 51.2918H91.5793C92.0125 51.2918 92.3965 51.0128 92.5303 50.6008L94.0489 45.9271Z" fill="white"/>
<path d="M36.0489 45.9271C36.3483 45.0057 37.6517 45.0057 37.9511 45.9271L39.4697 50.6008C39.6035 51.0128 39.9875 51.2918 40.4207 51.2918H45.335C46.3037 51.2918 46.7065 52.5314 45.9228 53.1008L41.947 55.9894C41.5966 56.244 41.4499 56.6954 41.5838 57.1074L43.1024 61.7812C43.4017 62.7025 42.3472 63.4686 41.5635 62.8992L37.5878 60.0106C37.2373 59.756 36.7627 59.756 36.4122 60.0106L32.4365 62.8992C31.6528 63.4686 30.5983 62.7025 30.8976 61.7812L32.4162 57.1074C32.5501 56.6954 32.4034 56.244 32.053 55.9894L28.0772 53.1008C27.2935 52.5314 27.6963 51.2918 28.665 51.2918H33.5793C34.0125 51.2918 34.3965 51.0128 34.5303 50.6008L36.0489 45.9271Z" fill="white"/>
<path d="M16.0489 63.927C16.3483 63.0057 17.6517 63.0057 17.9511 63.9271L19.0206 67.2188C19.1545 67.6309 19.5385 67.9098 19.9717 67.9098H23.4329C24.4016 67.9098 24.8044 69.1494 24.0207 69.7188L21.2205 71.7533C20.87 72.0079 20.7234 72.4593 20.8572 72.8713L21.9268 76.1631C22.2261 77.0844 21.1717 77.8506 20.388 77.2812L17.5878 75.2467C17.2373 74.9921 16.7627 74.9921 16.4122 75.2467L13.612 77.2812C12.8283 77.8506 11.7739 77.0844 12.0732 76.1631L13.1428 72.8713C13.2766 72.4593 13.13 72.0079 12.7795 71.7533L9.97933 69.7188C9.19562 69.1494 9.59839 67.9098 10.5671 67.9098H14.0283C14.4615 67.9098 14.8455 67.6309 14.9794 67.2188L16.0489 63.927Z" fill="white"/>
<path d="M114.049 63.927C114.348 63.0057 115.652 63.0057 115.951 63.9271L117.021 67.2188C117.155 67.6309 117.538 67.9098 117.972 67.9098H121.433C122.402 67.9098 122.804 69.1494 122.021 69.7188L119.22 71.7533C118.87 72.0079 118.723 72.4593 118.857 72.8713L119.927 76.1631C120.226 77.0844 119.172 77.8506 118.388 77.2812L115.588 75.2467C115.237 74.9921 114.763 74.9921 114.412 75.2467L111.612 77.2812C110.828 77.8506 109.774 77.0844 110.073 76.1631L111.143 72.8713C111.277 72.4593 111.13 72.0079 110.78 71.7533L107.979 69.7188C107.196 69.1494 107.598 67.9098 108.567 67.9098H112.028C112.462 67.9098 112.845 67.6309 112.979 67.2188L114.049 63.927Z" fill="white"/>
<path fill-rule="evenodd" clip-rule="evenodd" d="M61 65.5C60.1716 65.5 59.5 66.1716 59.5 67C59.5 67.8284 60.1716 68.5 61 68.5H64.5V70.0653C55.8137 70.8247 49 78.1166 49 87V88H48.5C47.6716 88 47 88.6716 47 89.5C47 90.3284 47.6716 91 48.5 91H53V92C53 92.5523 53.4477 93 54 93H78C78.5523 93 79 92.5523 79 92V91H83.5C84.3284 91 85 90.3284 85 89.5C85 88.6716 84.3284 88 83.5 88H83V87C83 78.1166 76.1863 70.8247 67.5 70.0653V68.5H71C71.8284 68.5 72.5 67.8284 72.5 67C72.5 66.1716 71.8284 65.5 71 65.5H66H61ZM44.5 99C43.6716 99 43 99.6716 43 100.5C43 101.328 43.6716 102 44.5 102H87.5C88.3284 102 89 101.328 89 100.5C89 99.6716 88.3284 99 87.5 99H86L85.269 96.6974C85.1372 96.2821 84.7516 96 84.3159 96H47.6841C47.2484 96 46.8628 96.2821 46.731 96.6974L46 99H44.5Z" fill="white"/>
</svg>
