<svg width="541" height="87" viewBox="0 0 541 87" fill="none" xmlns="http://www.w3.org/2000/svg">
<path d="M527.439 45.8081C527.334 44.6686 527.097 43.1171 526.729 41.1537C526.259 39.0889 525.362 37.1452 524.096 35.4474C522.671 33.4386 520.796 31.7906 518.62 30.6352C515.436 29.155 511.94 28.4692 508.432 28.6366C505.102 28.5326 501.786 29.1145 498.691 30.3459C496.278 31.3163 494.098 32.786 492.294 34.6585C490.795 36.249 489.671 38.1536 489.003 40.2333C488.413 42.0336 488.102 43.9137 488.082 45.8081H527.439ZM431.297 73.6296C434.054 73.655 436.81 73.4615 439.537 73.0511C441.82 72.7485 443.963 71.7788 445.697 70.2636C447.604 68.414 448.946 66.0612 449.567 63.4792C450.592 59.4065 451.053 55.2126 450.936 51.0148C451.031 47.2379 450.642 43.4644 449.778 39.7863C449.22 37.337 448.01 35.0837 446.276 33.2648C444.578 31.6755 442.458 30.6075 440.169 30.1881C437.246 29.6202 434.273 29.3558 431.297 29.3992C428.294 29.3587 425.295 29.623 422.346 30.1881C420.039 30.6022 417.901 31.6702 416.186 33.2648C414.442 35.0807 413.223 37.3342 412.658 39.7863C411.804 43.4658 411.424 47.2391 411.526 51.0148C411.396 55.2131 411.857 59.4089 412.895 63.4792C413.522 66.0705 414.884 68.4261 416.817 70.2636C418.592 71.7619 420.755 72.7283 423.057 73.0511C425.784 73.4615 428.539 73.655 431.297 73.6296ZM205.762 53.8285H191.44C188.773 53.7803 186.113 54.1168 183.543 54.8277C181.664 55.3723 179.887 56.2159 178.277 57.3259C176.997 58.1971 175.963 59.3836 175.276 60.7707C174.673 61.9433 174.349 63.2391 174.328 64.5574C174.288 65.6895 174.478 66.8181 174.885 67.8754C175.292 68.9328 175.909 69.8971 176.698 70.7107C178.304 72.3455 180.309 73.533 182.516 74.1555C184.983 74.8286 187.553 75.0425 190.098 74.7866C192.735 74.5904 195.313 73.913 197.706 72.7881C199.969 71.7022 201.951 70.1094 203.498 68.1336C205.09 66.0942 205.928 63.567 205.867 60.9811L205.762 53.8285ZM101.537 73.2877L113.673 29.3466H116.99L128.995 73.2877H101.537ZM133.47 86.7777H151.688V73.2877H143.106L127.468 15.9092H103.09L87.4526 73.2877H78.9756V86.7777H133.47ZM332.285 56.1162V47.57H373.116V56.2214L332.285 56.1162ZM318.832 15.9092V86.7777H332.285V69.8166H373.116V86.7777H386.595V15.7778H373.116V33.8433H332.285V15.9092H318.832ZM205.762 41.6533V29.5044H167.062V15.9092H219.214V73.4455H270.998V86.7777H207.631L206.183 79.2044H205.762C204.118 81.7106 201.708 83.6197 198.891 84.6477C194.796 86.2941 190.403 87.0732 185.991 86.9355C177.567 86.9355 171.117 84.7003 166.641 80.2825C164.41 78.0704 162.66 75.4224 161.501 72.504C160.341 69.5856 159.797 66.4596 159.902 63.3214C159.709 60.163 160.334 57.0082 161.718 54.1616C163.101 51.315 165.196 48.8726 167.8 47.0703C174.319 43.0763 181.911 41.1849 189.545 41.6533H205.762ZM431.297 15.9092C435.238 15.9062 439.17 16.2849 443.038 17.04C446.922 17.792 450.58 19.4299 453.726 21.8259C457.242 24.6398 459.964 28.3192 461.624 32.5022C463.88 38.5321 464.909 44.9509 464.652 51.3829C464.911 57.8237 463.882 64.2514 461.624 70.2899C459.957 74.4839 457.237 78.1786 453.726 81.0188C450.598 83.4598 446.935 85.1268 443.038 85.8836C439.171 86.6474 435.239 87.0349 431.297 87.0407C427.373 87.0258 423.459 86.6384 419.608 85.8836C415.693 85.1318 412.013 83.4647 408.867 81.0188C405.356 78.1786 402.636 74.4839 400.969 70.2899C398.711 64.2514 397.682 57.8237 397.942 51.3829C397.684 44.9509 398.713 38.5321 400.969 32.5022C402.428 28.5456 404.895 25.0379 408.127 22.326C411.359 19.6141 415.244 17.792 419.397 17.04C423.318 16.2803 427.303 15.9016 431.297 15.9092ZM14.3189 0V21.037C14.2384 24.9089 14.6273 28.7763 15.4772 32.5548C16.0386 35.1664 17.2419 37.5974 18.9786 39.6285C20.5984 41.3848 22.692 42.6358 25.0073 43.2311C27.7917 43.9504 30.6614 44.2866 33.5369 44.2303C36.5249 44.28 39.5068 43.9441 42.4088 43.2311C44.8444 42.6472 47.0744 41.4107 48.8586 39.6548C50.6934 37.7369 52.0467 35.4119 52.8075 32.8703C53.7892 29.3991 54.2418 25.8 54.1502 22.1941V0H67.787V86.7777H7.0266V73.2877H53.729V49.6211H53.4394C51.475 52.1819 48.8161 54.1259 45.7785 55.2222C41.8633 56.8989 37.6383 57.7322 33.3789 57.6677C29.4634 57.6541 25.5582 57.2667 21.7165 56.5107C17.7738 55.7717 14.0645 54.1039 10.8965 51.6459C7.35534 48.8025 4.63051 45.0737 2.99871 40.8381C0.779736 34.8356 -0.239873 28.4568 -0.00245202 22.0626V0H14.3189ZM303.063 15.9092V86.7777H289.584V58.404H235.299V44.0989C237.477 43.5283 239.519 42.5267 241.302 41.1537C243.349 39.4866 244.972 37.3602 246.041 34.9478C247.574 31.4754 248.636 27.8142 249.2 24.0611C249.595 21.6681 249.884 18.9333 250.095 15.9092H263.679C262.924 28.4613 260.388 38.1033 256.071 44.8351H289.584V15.9092H303.063ZM508.248 16.33C513.684 16.1762 519.084 17.255 524.043 19.4855C528.265 21.4385 531.897 24.4678 534.574 28.2685C537.31 32.2989 539.167 36.8593 540.023 41.6533C541.041 47.1758 541.307 52.8104 540.813 58.404H488.424L488.661 73.2877H536.548V86.7777H474.577V52.1455C474.507 47.2129 475.199 42.299 476.63 37.5774C477.906 33.4262 480.03 29.5848 482.869 26.2963C485.762 23.0612 489.367 20.5408 493.4 18.9333C498.124 17.078 503.173 16.1926 508.248 16.33Z" fill="#40002E"/>
</svg>
