<svg width="18" height="16" viewBox="0 0 18 16" fill="none" xmlns="http://www.w3.org/2000/svg">
<path d="M17 3.22915C17 4.14324 15.0254 4.92883 12.2 5.27281V10.9127V15C15.0254 14.656 17 13.8704 17 12.9563V3.22915Z" fill="#333333"/>
<path d="M5.8 5.27281C2.97455 4.92883 1 4.14324 1 3.22915V12.9563C1 13.8704 2.97455 14.656 5.8 15V10.9127V5.27281Z" fill="#333333"/>
<path d="M17 3.22915C17 1.99802 13.4183 1 9 1C4.58172 1 1 1.99802 1 3.22915M17 3.22915C17 4.14324 15.0254 4.92883 12.2 5.27281V10.9127M17 3.22915V12.9563C17 13.8704 15.0254 14.656 12.2 15V10.9127M1 3.22915C1 4.14324 2.97455 4.92883 5.8 5.27281V10.9127M1 3.22915V12.9563C1 13.8704 2.97455 14.656 5.8 15V10.9127M5.8 10.9127C6.77994 10.7934 7.86223 10.7272 9 10.7272C10.1378 10.7272 11.2201 10.7934 12.2 10.9127" stroke="#333333"/>
</svg>
