<svg width="112" height="68" viewBox="0 0 112 68" fill="none" xmlns="http://www.w3.org/2000/svg">
<g opacity="0.1">
<path fill-rule="evenodd" clip-rule="evenodd" d="M0.000488281 46.4859C0.000488281 46.4859 0.743773 44.2888 1.2219 43.0039C2.90578 38.4785 5.61391 32.3622 9.71364 26.1654C17.9223 13.7579 32.537 0 56.0003 0C79.4636 0 94.0782 13.7579 102.287 26.1654C106.387 32.3622 109.095 38.4785 110.779 43.0039C111.257 44.2888 112 46.4859 112 46.4859C112 46.4859 112 66.2039 112 68H0.000732012C0.000732012 60.8281 0.000488281 46.4859 0.000488281 46.4859ZM88.8621 46.4859C87.6716 43.8325 86.1414 40.8956 84.2209 37.9928C78.3231 29.0782 69.5725 21.5141 56.0003 21.5141C42.4281 21.5141 33.6774 29.0782 27.7796 37.9928C25.8592 40.8956 24.329 43.8325 23.1385 46.4859H88.8621Z" fill="#BA99C6"/>
</g>
</svg>
