<svg width="103" height="43" viewBox="0 0 103 43" fill="none" xmlns="http://www.w3.org/2000/svg">
<g opacity="0.2">
<path d="M1.12425 39.7791C0.684538 40.9677 0.000976563 43 0.000976563 43H21.2798C22.3747 40.5456 23.7819 37.829 25.5481 35.1438C30.972 26.8977 39.0195 19.9008 51.5012 19.9008C63.9829 19.9008 72.0304 26.8977 77.4543 35.1438C79.2205 37.829 80.6277 40.5456 81.7225 43H103.001C103.001 43 102.318 40.9677 101.878 39.7791C100.33 35.5931 97.839 29.9354 94.0687 24.2033C86.5196 12.7263 73.0792 0 51.5012 0C29.9232 0 16.4828 12.7263 8.93368 24.2033C5.16336 29.9354 2.67283 35.5931 1.12425 39.7791Z" fill="#EC6A55"/>
</g>
</svg>
