<svg width="121" height="291" viewBox="0 0 121 291" fill="none" xmlns="http://www.w3.org/2000/svg">
<g opacity="0.1">
<path d="M9.06342 3.16455C5.71878 1.92654 0 0.00194784 0 0.00194784L-2.61881e-06 59.9133C6.90661 62.9958 14.5511 66.958 22.107 71.9307C45.3111 87.2019 65 109.86 65 145.003C65 180.145 45.3111 202.803 22.107 218.074C14.5511 223.047 6.90661 227.009 -1.00575e-05 230.092L-1.26763e-05 290.002C-1.26763e-05 290.002 5.71877 288.079 9.06341 286.841C20.8427 282.48 36.7631 275.468 52.893 264.853C85.1889 243.598 121 205.756 121 145.003C121 84.249 85.1889 46.407 52.893 25.1523C36.7632 14.5368 20.8427 7.52463 9.06342 3.16455Z" fill="#BA99C6"/>
</g>
</svg>
