<?xml version="1.0" standalone="no"?>
<!DOCTYPE svg PUBLIC "-//W3C//DTD SVG 20010904//EN"
 "http://www.w3.org/TR/2001/REC-SVG-20010904/DTD/svg10.dtd">
<svg version="1.0" xmlns="http://www.w3.org/2000/svg"
 width="114.000000pt" height="114.000000pt" viewBox="0 0 114.000000 114.000000"
 preserveAspectRatio="xMidYMid meet">
<metadata>
Created by potrace 1.14, written by Peter Selinger 2001-2017
</metadata>
<g transform="translate(0.000000,114.000000) scale(0.100000,-0.100000)"
fill="#000000" stroke="none">
<path d="M262 803 c6 -179 20 -230 83 -288 53 -49 112 -68 214 -67 77 0 137
17 174 50 16 14 17 10 17 -86 l0 -102 -210 0 c-116 0 -211 -3 -211 -7 -1 -5
-2 -32 -3 -61 l-2 -52 278 0 278 0 0 380 0 380 -60 0 c-33 0 -60 -3 -61 -7 -1
-5 -2 -64 -4 -133 -4 -180 -27 -222 -131 -241 -29 -5 -73 -7 -96 -4 -111 16
-140 75 -136 268 l3 117 -69 0 -68 0 4 -147z"/>
</g>
</svg>
