<svg width="1706" height="930" viewBox="0 0 1706 930" fill="none" xmlns="http://www.w3.org/2000/svg">
<path opacity="0.7" d="M161.019 126.341L159.652 128.564L141.693 129.153L154.46 137.005L153.094 139.227L136.525 129.038L137.892 126.815L155.922 126.238L143.098 118.351L144.451 116.152L161.019 126.341Z" fill="white"/>
<path d="M169.891 140.793L220.601 162.464L212.108 176.273L169.891 140.793Z" fill="white"/>
<path fill-rule="evenodd" clip-rule="evenodd" d="M1586.91 553.198L1571.89 553.12C1571.9 552.237 1571.9 551.354 1571.9 550.47C1571.9 549.823 1571.9 549.177 1571.9 548.53L1571.9 547.819L1586.92 547.789C1586.92 548.69 1586.92 549.592 1586.92 550.494C1586.92 551.396 1586.92 552.297 1586.91 553.198ZM1586.89 542.385L1571.87 542.524C1571.86 540.76 1571.83 538.998 1571.8 537.237L1586.82 536.99C1586.85 538.786 1586.87 540.585 1586.89 542.385ZM1586.71 531.604L1571.7 531.96C1571.66 530.203 1571.61 528.447 1571.55 526.693L1586.56 526.229C1586.62 528.019 1586.67 529.811 1586.71 531.604ZM1586.38 520.862L1571.37 521.435C1571.31 519.684 1571.23 517.935 1571.15 516.187L1586.16 515.506C1586.24 517.29 1586.31 519.075 1586.38 520.862ZM1585.89 510.132L1570.9 510.922C1570.84 509.899 1570.79 508.876 1570.73 507.854C1570.69 507.115 1570.64 506.376 1570.6 505.638L1585.59 504.738C1585.7 506.534 1585.8 508.332 1585.89 510.132ZM1585.25 499.355L1570.26 500.364C1570.2 499.472 1570.14 498.58 1570.08 497.689C1570.02 496.826 1569.95 495.963 1569.89 495.101L1584.86 493.983C1585 495.772 1585.13 497.563 1585.25 499.355ZM1584.44 488.621L1569.48 489.848C1569.33 488.099 1569.18 486.352 1569.03 484.606L1583.99 483.271C1584.15 485.052 1584.3 486.836 1584.44 488.621ZM1583.49 477.931L1568.54 479.375C1568.37 477.625 1568.2 475.875 1568.02 474.128L1582.95 472.574C1583.14 474.358 1583.32 476.143 1583.49 477.931ZM1582.37 467.206C1582.17 465.418 1581.97 463.633 1581.76 461.849L1566.84 463.623C1567.05 465.37 1567.25 467.119 1567.45 468.87L1582.37 467.206ZM1581.1 456.505L1566.2 458.387C1566.08 457.395 1565.95 456.403 1565.82 455.412C1565.72 454.662 1565.62 453.913 1565.52 453.163L1580.41 451.172C1580.65 452.947 1580.88 454.725 1581.1 456.505ZM1579.68 445.851L1564.81 447.952C1564.56 446.216 1564.31 444.483 1564.05 442.752L1578.91 440.542C1579.17 442.31 1579.43 444.079 1579.68 445.851ZM1578.09 435.215L1563.26 437.534C1562.98 435.793 1562.71 434.053 1562.42 432.315L1577.24 429.887C1577.53 431.661 1577.82 433.437 1578.09 435.215ZM1576.35 424.571L1561.55 427.109C1561.25 425.375 1560.95 423.644 1560.64 421.915L1575.42 419.268C1575.74 421.034 1576.05 422.801 1576.35 424.571ZM1574.45 413.979L1559.69 416.734C1559.37 415.009 1559.04 413.287 1558.71 411.566L1573.45 408.702C1573.79 410.459 1574.12 412.218 1574.45 413.979ZM1572.41 403.439L1557.69 406.412C1557.34 404.685 1556.98 402.96 1556.62 401.237L1571.32 398.156C1571.69 399.915 1572.05 401.676 1572.41 403.439ZM1570.19 392.881L1555.52 396.071C1555.14 394.352 1554.76 392.634 1554.38 390.919L1569.03 387.621C1569.42 389.372 1569.81 391.126 1570.19 392.881ZM1567.83 382.374L1553.2 385.781C1552.8 384.07 1552.4 382.362 1551.99 380.657L1566.59 377.142C1567.01 378.884 1567.42 380.628 1567.83 382.374ZM1565.31 371.925L1550.74 375.547C1550.31 373.845 1549.89 372.145 1549.45 370.448L1564 366.718C1564.44 368.451 1564.88 370.187 1565.31 371.925ZM1562.64 361.497L1548.12 365.334C1547.67 363.632 1547.21 361.932 1546.75 360.234L1561.24 356.29C1561.71 358.023 1562.18 359.758 1562.64 361.497ZM1559.81 351.098L1545.35 355.15C1544.87 353.458 1544.39 351.768 1543.91 350.081L1558.34 345.922C1558.83 347.645 1559.32 349.37 1559.81 351.098ZM1556.83 340.762L1542.43 345.027C1542.11 343.945 1541.79 342.863 1541.46 341.783C1541.28 341.185 1541.1 340.586 1540.92 339.989L1555.28 335.617C1555.8 337.329 1556.32 339.044 1556.83 340.762ZM1553.7 330.477L1539.36 334.955C1538.84 333.274 1538.31 331.595 1537.77 329.92L1552.07 325.336C1552.62 327.047 1553.16 328.761 1553.7 330.477ZM1550.41 320.211L1536.14 324.9C1535.59 323.23 1535.04 321.562 1534.48 319.897L1548.71 315.102C1549.28 316.802 1549.85 318.505 1550.41 320.211ZM1546.97 310.01L1532.78 314.91C1532.2 313.251 1531.62 311.594 1531.04 309.94L1545.2 304.935C1545.8 306.624 1546.39 308.316 1546.97 310.01ZM1543.39 299.877L1529.27 304.986C1528.67 303.332 1528.07 301.681 1527.45 300.033L1541.54 294.819C1542.16 296.502 1542.78 298.188 1543.39 299.877ZM1539.65 289.771C1539.01 288.092 1538.37 286.415 1537.72 284.741L1523.72 290.163C1524.35 291.802 1524.98 293.444 1525.6 295.089L1539.65 289.771ZM1535.76 279.729L1521.8 285.254C1521.15 283.62 1520.5 281.99 1519.84 280.362L1533.76 274.734C1534.43 276.396 1535.1 278.061 1535.76 279.729ZM1531.73 269.758L1517.85 275.488C1517.18 273.867 1516.5 272.248 1515.82 270.632L1529.66 264.799C1530.36 266.449 1531.05 268.102 1531.73 269.758ZM1527.55 259.839L1513.75 265.774C1513.06 264.158 1512.36 262.545 1511.65 260.934L1525.4 254.898C1526.12 256.542 1526.84 258.189 1527.55 259.839ZM1523.22 249.975C1522.49 248.338 1521.75 246.703 1521 245.072L1507.34 251.311C1507.71 252.108 1508.07 252.906 1508.43 253.704C1508.79 254.507 1509.15 255.31 1509.51 256.114L1523.22 249.975ZM1518.75 240.188L1505.13 246.528C1504.39 244.936 1503.65 243.348 1502.89 241.763L1516.46 235.323C1517.23 236.942 1517.99 238.563 1518.75 240.188ZM1514.14 230.471L1500.62 237.011C1499.85 235.427 1499.08 233.846 1498.3 232.268L1511.77 225.629C1512.57 227.24 1513.35 228.854 1514.14 230.471ZM1509.37 220.807L1495.95 227.545C1495.16 225.974 1494.37 224.407 1493.57 222.842L1506.94 216.005C1507.76 217.602 1508.57 219.203 1509.37 220.807ZM1504.47 211.224L1491.15 218.159C1490.34 216.601 1489.52 215.047 1488.7 213.496L1501.97 206.462C1502.81 208.046 1503.64 209.633 1504.47 211.224ZM1499.44 201.722L1486.22 208.853C1485.38 207.305 1484.54 205.76 1483.7 204.219L1496.86 196.991C1497.73 198.565 1498.58 200.142 1499.44 201.722ZM1494.25 192.279L1481.14 199.603C1480.28 198.069 1479.42 196.537 1478.55 195.009L1491.61 187.588C1492.49 189.149 1493.38 190.712 1494.25 192.279ZM1488.93 182.919L1475.93 190.435C1475.05 188.914 1474.17 187.397 1473.28 185.883L1486.22 178.271C1487.13 179.817 1488.03 181.366 1488.93 182.919ZM1483.48 173.645L1470.59 181.352C1469.69 179.844 1468.78 178.34 1467.87 176.839L1480.7 169.039C1481.63 170.57 1482.56 172.106 1483.48 173.645ZM1477.89 164.446L1465.11 172.341C1464.19 170.845 1463.26 169.352 1462.32 167.864L1475.04 159.876C1475.99 161.395 1476.94 162.919 1477.89 164.446ZM1472.16 155.328L1459.5 163.409C1458.56 161.928 1457.6 160.45 1456.65 158.977L1469.25 150.803C1470.22 152.307 1471.19 153.816 1472.16 155.328ZM1466.3 146.3L1453.76 154.566C1452.8 153.1 1451.83 151.637 1450.85 150.179L1463.32 141.821C1464.32 143.31 1465.31 144.803 1466.3 146.3ZM1460.31 137.359L1447.9 145.808C1446.91 144.354 1445.91 142.904 1444.91 141.458L1457.27 132.919C1458.29 134.395 1459.3 135.875 1460.31 137.359ZM1454.19 128.501L1441.9 137.131C1440.89 135.693 1439.87 134.258 1438.85 132.827L1451.08 124.108C1452.12 125.568 1453.16 127.033 1454.19 128.501ZM1447.94 119.738L1435.78 128.547C1434.75 127.124 1433.71 125.705 1432.67 124.29L1444.77 115.392C1445.83 116.837 1446.89 118.286 1447.94 119.738ZM1441.56 111.07L1429.53 120.056C1428.48 118.647 1427.42 117.242 1426.36 115.841L1438.33 106.768C1439.41 108.198 1440.49 109.632 1441.56 111.07ZM1435.06 102.49L1423.16 111.65C1422.09 110.258 1421.01 108.869 1419.93 107.484L1431.76 98.2364C1432.86 99.6501 1433.96 101.068 1435.06 102.49ZM1428.43 94.0081L1416.67 103.342C1415.57 101.965 1414.48 100.593 1413.37 99.2242L1425.07 89.8048C1426.19 91.2018 1427.31 92.6028 1428.43 94.0081ZM1421.68 85.6268L1410.05 95.1314C1408.94 93.7705 1407.82 92.4139 1406.7 91.0614L1418.26 81.4722C1419.4 82.8528 1420.54 84.2377 1421.68 85.6268ZM1414.81 77.3417L1403.32 87.0151C1402.19 85.6705 1401.05 84.3301 1399.91 82.9939L1411.32 73.237C1412.49 74.6009 1413.65 75.9692 1414.81 77.3417ZM1407.81 69.1583L1396.47 78.9983C1395.32 77.6707 1394.16 76.3473 1393 75.0282L1404.27 65.1056C1405.46 66.4521 1406.64 67.803 1407.81 69.1583ZM1400.7 61.0793L1389.5 71.0839C1388.33 69.7734 1387.15 68.4672 1385.97 67.1654L1397.1 57.0793C1398.3 58.4082 1399.5 59.7416 1400.7 61.0793ZM1393.47 53.1045L1382.42 63.2714C1381.23 61.9777 1380.03 60.6885 1378.83 59.4036L1389.81 49.1563C1391.04 50.4679 1392.26 51.7839 1393.47 53.1045ZM1386.12 45.2352L1375.22 55.5623C1374.01 54.2863 1372.8 53.0147 1371.58 51.7476L1382.41 41.3412C1383.65 42.6346 1384.89 43.9327 1386.12 45.2352ZM1378.67 37.4745L1367.91 47.9596C1366.69 46.7014 1365.46 45.4477 1364.22 44.1985L1374.89 33.6352C1376.16 34.9104 1377.41 36.1902 1378.67 37.4745ZM1371.09 29.8236L1360.5 40.4645C1359.25 39.2243 1358 37.9887 1356.75 36.7577L1367.27 26.0398C1368.55 27.2965 1369.82 28.5577 1371.09 29.8236ZM1363.41 22.284L1352.97 33.0783C1351.71 31.8565 1350.44 30.6392 1349.17 29.4265L1359.53 18.5563C1360.83 19.7941 1362.12 21.0367 1363.41 22.284ZM1355.62 14.8569L1345.34 25.8024C1344.06 24.599 1342.77 23.4003 1341.48 22.2062L1351.68 11.1859C1353 12.4048 1354.31 13.6285 1355.62 14.8569ZM1347.72 7.54357L1337.6 18.638C1336.3 17.4538 1335 16.2743 1333.69 15.0995L1343.73 3.93156C1345.07 5.13075 1346.4 6.33477 1347.72 7.54357ZM1339.72 0.34852L1329.76 11.5894C1328.44 10.4241 1327.12 9.26358 1325.8 8.10782L1335.68 -3.20548C1337.03 -2.02568 1338.37 -0.841008 1339.72 0.34852ZM1331.61 -6.73017L1321.81 4.65489C1320.48 3.50872 1319.15 2.36735 1317.8 1.23081L1327.51 -10.2255C1328.88 -9.06531 1330.25 -7.90019 1331.61 -6.73017ZM1323.39 -13.6912L1313.77 -2.1643C1312.42 -3.29071 1311.07 -4.41228 1309.71 -5.52897L1319.25 -17.1259C1320.64 -15.986 1322.02 -14.8411 1323.39 -13.6912ZM1315.08 -20.529L1305.63 -8.86277C1304.26 -9.96912 1302.89 -11.0706 1301.52 -12.1671L1310.89 -23.9021C1312.29 -22.7828 1313.69 -21.6584 1315.08 -20.529ZM1306.67 -27.245L1297.39 -15.4418C1296.01 -16.5284 1294.62 -17.6101 1293.23 -18.6868L1302.43 -30.5575C1303.85 -29.4584 1305.26 -28.3542 1306.67 -27.245ZM1298.16 -33.8395L1289.05 -21.9018C1287.65 -22.9685 1286.25 -24.0302 1284.85 -25.0868L1293.87 -37.0908C1295.3 -36.0122 1296.74 -34.9284 1298.16 -33.8395ZM1289.56 -40.3076L1280.62 -28.2379C1279.21 -29.2831 1277.8 -30.3232 1276.38 -31.3582L1285.22 -43.4929C1286.67 -42.4363 1288.12 -41.3745 1289.56 -40.3076ZM1280.86 -46.6471L1272.1 -34.448C1270.68 -35.4728 1269.25 -36.4925 1267.81 -37.5071L1276.48 -49.77C1277.94 -48.7342 1279.41 -47.6933 1280.86 -46.6471ZM1272.07 -52.8615L1263.49 -40.5355C1262.05 -41.5398 1260.6 -42.5389 1259.15 -43.5328L1267.64 -55.9214C1269.12 -54.9067 1270.6 -53.8868 1272.07 -52.8615ZM1263.19 -58.9478L1254.79 -46.4974C1253.34 -47.4792 1251.88 -48.4558 1250.41 -49.4271L1258.72 -61.9387C1260.21 -60.9471 1261.7 -59.9501 1263.19 -58.9478ZM1254.23 -64.8977L1246.01 -52.3255C1244.54 -53.2864 1243.07 -54.2421 1241.59 -55.1925L1249.71 -67.8244C1251.22 -66.8542 1252.72 -65.8786 1254.23 -64.8977ZM1245.17 -70.719L1237.14 -58.0278C1235.66 -58.9675 1234.17 -59.902 1232.67 -60.8312L1240.61 -73.581C1242.13 -72.6324 1243.65 -71.6784 1245.17 -70.719ZM1236.03 -76.4104L1228.18 -63.6027C1226.69 -64.5195 1225.19 -65.4311 1223.68 -66.3372L1231.43 -79.2022C1232.96 -78.2771 1234.5 -77.3465 1236.03 -76.4104ZM1226.81 -81.9596L1219.16 -69.0382C1217.65 -69.9331 1216.13 -70.8226 1214.61 -71.7068L1222.17 -84.6841C1223.72 -83.7814 1225.27 -82.8733 1226.81 -81.9596ZM1217.51 -87.3754L1210.05 -74.3429C1208.52 -75.2162 1206.99 -76.0841 1205.46 -76.9465L1212.83 -90.0335C1214.39 -89.153 1215.95 -88.267 1217.51 -87.3754ZM1208.12 -92.6581L1200.85 -79.5172C1199.32 -80.3682 1197.77 -81.2137 1196.23 -82.0537L1203.4 -95.2477C1204.98 -94.3901 1206.55 -93.5269 1208.12 -92.6581ZM1198.67 -97.7978L1191.59 -84.5514C1190.05 -85.3784 1188.49 -86.1999 1186.94 -87.0159L1193.92 -100.314C1195.5 -99.4809 1197.09 -98.6422 1198.67 -97.7978ZM1189.14 -102.796L1182.26 -89.4473C1180.7 -90.2522 1179.14 -91.0515 1177.57 -91.8452L1184.35 -105.245C1185.95 -104.434 1187.55 -103.618 1189.14 -102.796ZM1179.53 -107.659L1172.85 -94.2097C1171.28 -94.9922 1169.7 -95.7691 1168.12 -96.5404L1174.7 -110.038C1176.31 -109.251 1177.93 -108.458 1179.53 -107.659ZM1169.85 -112.379L1163.37 -98.8327C1161.79 -99.5901 1160.2 -100.342 1158.61 -101.088L1165 -114.681C1166.62 -113.92 1168.24 -113.152 1169.85 -112.379ZM1160.12 -116.949L1153.84 -103.309C1152.24 -104.044 1150.64 -104.773 1149.04 -105.496L1155.22 -119.183C1156.86 -118.444 1158.49 -117.7 1160.12 -116.949ZM1150.31 -121.381L1144.23 -107.649C1142.62 -108.361 1141.01 -109.068 1139.39 -109.768L1145.37 -123.544C1147.02 -122.829 1148.67 -122.108 1150.31 -121.381ZM1140.42 -125.672L1134.54 -111.852C1132.93 -112.538 1131.31 -113.219 1129.69 -113.893L1135.47 -127.756C1137.12 -127.067 1138.77 -126.373 1140.42 -125.672ZM1130.5 -129.805L1124.83 -115.9C1123.2 -116.563 1121.57 -117.22 1119.94 -117.871L1125.51 -131.818C1127.18 -131.153 1128.84 -130.482 1130.5 -129.805ZM1120.5 -133.796L1115.04 -119.808C1113.4 -120.448 1111.76 -121.082 1110.12 -121.71L1115.48 -135.737C1117.16 -135.096 1118.83 -134.449 1120.5 -133.796ZM1110.44 -137.643L1105.18 -123.577C1103.53 -124.192 1101.88 -124.802 1100.23 -125.405L1105.39 -139.511C1107.07 -138.894 1108.76 -138.272 1110.44 -137.643ZM1100.33 -141.335L1095.28 -127.192C1093.63 -127.782 1091.98 -128.366 1090.32 -128.944L1095.26 -143.124C1096.96 -142.534 1098.65 -141.938 1100.33 -141.335ZM1090.18 -144.877L1085.34 -130.661C1083.67 -131.227 1082.01 -131.787 1080.34 -132.342L1085.07 -146.593C1086.78 -146.027 1088.48 -145.455 1090.18 -144.877ZM1079.95 -148.273L1075.33 -133.987C1073.65 -134.529 1071.97 -135.066 1070.29 -135.596L1074.82 -149.916C1076.53 -149.375 1078.24 -148.827 1079.95 -148.273ZM1069.68 -151.517C1067.97 -152.044 1066.26 -152.564 1064.54 -153.078L1060.23 -138.693C1061.91 -138.189 1063.59 -137.68 1065.27 -137.164L1069.68 -151.517ZM1059.39 -154.602L1055.18 -140.185C1053.5 -140.677 1051.81 -141.163 1050.12 -141.642L1054.22 -156.09C1055.94 -155.6 1057.67 -155.104 1059.39 -154.602ZM1049.03 -157.54L1045.04 -143.062C1043.34 -143.53 1041.64 -143.991 1039.94 -144.447L1043.83 -158.953C1045.56 -158.488 1047.3 -158.017 1049.03 -157.54ZM1038.61 -160.329L1034.83 -145.794C1033.14 -146.234 1031.44 -146.669 1029.74 -147.097L1033.41 -161.66C1035.14 -161.222 1036.88 -160.779 1038.61 -160.329ZM1028.19 -162.953L1024.63 -148.363C1022.93 -148.779 1021.22 -149.189 1019.51 -149.593L1022.97 -164.208C1024.71 -163.796 1026.45 -163.377 1028.19 -162.953ZM1017.72 -165.426L1014.38 -150.786C1012.66 -151.177 1010.95 -151.563 1009.23 -151.942L1012.47 -166.607C1014.22 -166.219 1015.97 -165.826 1017.72 -165.426ZM1007.19 -167.749L1004.07 -153.061C1002.35 -153.428 1000.62 -153.788 998.896 -154.142L1001.92 -168.853C1003.68 -168.492 1005.44 -168.124 1007.19 -167.749ZM996.656 -169.912L993.745 -155.18C992.026 -155.519 990.304 -155.853 988.58 -156.18L991.382 -170.934C993.142 -170.6 994.9 -170.259 996.656 -169.912ZM986.096 -171.918L983.403 -157.144C981.674 -157.459 979.944 -157.768 978.212 -158.071L980.796 -172.864C982.565 -172.555 984.331 -172.24 986.096 -171.918ZM975.483 -173.772L973.008 -158.96C971.271 -159.25 969.532 -159.534 967.791 -159.812L970.157 -174.642C971.934 -174.358 973.71 -174.068 975.483 -173.772ZM964.833 -175.471L962.576 -160.624C960.846 -160.887 959.114 -161.144 957.379 -161.394L959.527 -176.257C961.298 -176.002 963.066 -175.739 964.833 -175.471ZM954.208 -177.006L952.17 -162.128C950.431 -162.366 948.691 -162.598 946.948 -162.824L948.878 -177.717C950.656 -177.486 952.433 -177.249 954.208 -177.006ZM943.535 -178.389L941.715 -163.482C939.968 -163.695 938.22 -163.902 936.469 -164.103L938.18 -179.023C939.967 -178.818 941.752 -178.607 943.535 -178.389ZM932.814 -179.618L931.213 -164.686C929.466 -164.874 927.718 -165.055 925.967 -165.229L927.459 -180.172C929.246 -179.994 931.031 -179.809 932.814 -179.618ZM922.121 -180.686L920.738 -165.732C918.993 -165.894 917.246 -166.049 915.497 -166.198L916.771 -181.161C918.556 -181.009 920.339 -180.85 922.121 -180.686ZM911.411 -181.598L910.246 -166.625C908.494 -166.762 906.74 -166.892 904.984 -167.016L906.04 -181.996C907.832 -181.869 909.622 -181.737 911.411 -181.598ZM900.658 -182.355L899.712 -167.368C897.952 -167.479 896.191 -167.584 894.428 -167.682L895.266 -182.676C897.065 -182.576 898.862 -182.469 900.658 -182.355ZM889.892 -182.957L889.164 -167.957C887.416 -168.042 885.667 -168.12 883.917 -168.193L884.537 -183.197C886.324 -183.123 888.109 -183.043 889.892 -182.957ZM879.171 -183.4L878.659 -168.391C876.905 -168.451 875.15 -168.504 873.392 -168.552L873.796 -183.563C875.589 -183.515 877.381 -183.461 879.171 -183.4ZM868.411 -183.689L868.116 -168.674C866.355 -168.709 864.593 -168.737 862.83 -168.759L863.016 -183.775C864.816 -183.753 866.614 -183.724 868.411 -183.689ZM857.612 -183.823L857.534 -168.806C856.651 -168.81 855.768 -168.813 854.884 -168.814C854 -168.816 853.117 -168.816 852.233 -168.814L852.203 -183.831C853.104 -183.833 854.006 -183.833 854.908 -183.832C855.81 -183.83 856.711 -183.827 857.612 -183.823ZM846.799 -183.801L846.938 -168.784C845.174 -168.768 843.412 -168.745 841.651 -168.716L841.404 -183.731C843.2 -183.761 844.999 -183.784 846.799 -183.801ZM836.018 -183.623L836.374 -168.61C834.617 -168.568 832.861 -168.52 831.107 -168.466L830.643 -183.476C832.433 -183.532 834.225 -183.581 836.018 -183.623ZM825.276 -183.291L825.849 -168.284C824.098 -168.217 822.349 -168.144 820.601 -168.065L819.92 -183.067C821.704 -183.148 823.489 -183.223 825.276 -183.291ZM814.546 -182.803L815.336 -167.807C813.573 -167.714 811.811 -167.615 810.052 -167.509L809.152 -182.5C810.948 -182.607 812.746 -182.709 814.546 -182.803ZM803.769 -182.157L804.778 -167.174C803.022 -167.055 801.267 -166.931 799.515 -166.8L798.397 -181.776C800.186 -181.909 801.977 -182.036 803.769 -182.157ZM793.035 -181.356L794.262 -166.389C792.513 -166.245 790.766 -166.096 789.02 -165.94L787.685 -180.898C789.466 -181.057 791.25 -181.21 793.035 -181.356ZM782.345 -180.401L783.789 -165.454C782.038 -165.284 780.289 -165.109 778.542 -164.927L776.988 -179.864C778.772 -180.049 780.557 -180.229 782.345 -180.401ZM771.62 -179.285L773.284 -164.36C771.533 -164.165 769.784 -163.964 768.036 -163.756L766.263 -178.668C768.047 -178.88 769.832 -179.086 771.62 -179.285ZM760.918 -178.013L762.801 -163.114C761.058 -162.894 759.317 -162.667 757.577 -162.435L755.586 -177.319C757.361 -177.557 759.139 -177.788 760.918 -178.013ZM750.265 -176.587L752.365 -161.718C750.63 -161.473 748.897 -161.221 747.166 -160.964L744.956 -175.818C746.724 -176.081 748.493 -176.337 750.265 -176.587ZM739.629 -175.005L741.948 -160.168C740.207 -159.896 738.467 -159.617 736.729 -159.332L734.301 -174.152C736.075 -174.443 737.851 -174.727 739.629 -175.005ZM728.985 -173.261L731.523 -158.46C729.789 -158.162 728.058 -157.859 726.329 -157.549L723.682 -172.332C725.448 -172.648 727.215 -172.958 728.985 -173.261ZM718.393 -171.365L721.148 -156.602C719.423 -156.28 717.701 -155.952 715.98 -155.618L713.116 -170.36C714.873 -170.701 716.632 -171.036 718.393 -171.365ZM707.853 -169.317L710.826 -154.597C709.099 -154.248 707.374 -153.893 705.651 -153.532L702.57 -168.23C704.329 -168.598 706.09 -168.961 707.853 -169.317ZM697.295 -167.104L700.485 -152.429C698.766 -152.055 697.048 -151.675 695.333 -151.289L692.035 -165.94C693.786 -166.334 695.539 -166.722 697.295 -167.104ZM686.788 -164.738L690.195 -150.112C688.484 -149.714 686.776 -149.309 685.071 -148.899L681.556 -163.499C683.298 -163.918 685.042 -164.331 686.788 -164.738ZM676.339 -162.223L679.961 -147.649C678.259 -147.226 676.559 -146.797 674.862 -146.362L671.132 -160.909C672.865 -161.353 674.601 -161.791 676.339 -162.223ZM665.91 -159.549L669.748 -145.03C668.046 -144.58 666.346 -144.124 664.648 -143.662L660.704 -158.152C662.437 -158.624 664.172 -159.09 665.91 -159.549ZM655.512 -156.718L659.564 -142.258C657.872 -141.784 656.182 -141.304 654.495 -140.817L650.336 -155.247C652.059 -155.744 653.784 -156.234 655.512 -156.718ZM645.176 -153.739L649.441 -139.341C647.759 -138.842 646.079 -138.338 644.403 -137.828L640.031 -152.195C641.743 -152.716 643.458 -153.231 645.176 -153.739ZM634.891 -150.61L639.369 -136.276C637.688 -135.751 636.009 -135.22 634.334 -134.682L629.75 -148.983C631.461 -149.532 633.175 -150.074 634.891 -150.61ZM624.625 -147.319L629.314 -133.053C627.644 -132.504 625.976 -131.949 624.311 -131.388L619.516 -145.619C621.216 -146.192 622.919 -146.759 624.625 -147.319ZM614.424 -143.883L619.324 -129.687C617.665 -129.114 616.008 -128.535 614.354 -127.951L609.349 -142.11C611.038 -142.707 612.73 -143.298 614.424 -143.883ZM604.291 -140.301L609.4 -126.179C607.746 -125.581 606.095 -124.976 604.447 -124.366L599.233 -138.449C600.916 -139.073 602.602 -139.69 604.291 -140.301ZM594.185 -136.559L599.503 -122.515C597.858 -121.892 596.216 -121.263 594.577 -120.629L589.155 -134.633C590.829 -135.281 592.506 -135.923 594.185 -136.559ZM584.143 -132.672L589.668 -118.708C588.034 -118.061 586.404 -117.409 584.776 -116.751L579.148 -130.674C580.81 -131.346 582.475 -132.012 584.143 -132.672ZM574.172 -128.641L579.902 -114.76C578.28 -114.091 576.662 -113.415 575.046 -112.734L569.213 -126.573C570.863 -127.268 572.516 -127.958 574.172 -128.641ZM564.253 -124.46L570.188 -110.666C568.572 -109.97 566.958 -109.269 565.348 -108.562L559.312 -122.313C560.956 -123.035 562.603 -123.75 564.253 -124.46ZM554.389 -120.13L560.527 -106.424C558.924 -105.706 557.323 -104.982 555.725 -104.252L549.486 -117.912C551.117 -118.657 552.752 -119.397 554.389 -120.13ZM544.602 -115.66L550.942 -102.046C549.35 -101.305 547.762 -100.558 546.177 -99.806L539.737 -113.373C541.356 -114.141 542.977 -114.903 544.602 -115.66ZM534.885 -111.047L541.425 -97.5286C539.841 -96.7623 538.26 -95.9904 536.682 -95.2128L530.043 -108.683C531.654 -109.477 533.268 -110.265 534.885 -111.047ZM525.221 -106.284L531.959 -92.8633C530.388 -92.0745 528.821 -91.2801 527.256 -90.4801L520.419 -103.851C522.016 -104.668 523.617 -105.479 525.221 -106.284ZM515.638 -101.384L522.573 -88.0635C521.015 -87.2525 519.461 -86.4358 517.91 -85.6137L510.876 -98.8823C512.46 -99.7217 514.047 -100.555 515.638 -101.384ZM506.136 -96.3473L513.266 -83.1307C511.718 -82.2955 510.174 -81.4549 508.633 -80.6087L501.405 -93.7725C502.979 -94.6364 504.556 -95.4947 506.136 -96.3473ZM496.693 -91.1627L504.017 -78.0526C502.482 -77.195 500.951 -76.332 499.423 -75.4635L492.002 -88.5195C493.562 -89.4061 495.126 -90.2872 496.693 -91.1627ZM487.333 -85.8429C485.78 -84.9451 484.231 -84.0418 482.685 -83.133L490.297 -70.1875C491.811 -71.0777 493.328 -71.9624 494.849 -72.8418L487.333 -85.8429ZM478.059 -80.3902L485.765 -67.5009C484.258 -66.5994 482.754 -65.6926 481.253 -64.7805L473.452 -77.6129C474.984 -78.5442 476.52 -79.4699 478.059 -80.3902ZM468.86 -74.798L476.755 -62.0232C475.259 -61.0987 473.766 -60.169 472.278 -59.2338L464.29 -71.9503C465.809 -72.905 467.333 -73.8542 468.86 -74.798ZM459.742 -69.0702L467.823 -56.4126C466.342 -55.4669 464.864 -54.5159 463.391 -53.5597L455.217 -66.1576C456.721 -67.1338 458.23 -68.1047 459.742 -69.0702ZM450.714 -63.2129L458.98 -50.6751C457.514 -49.7084 456.051 -48.7364 454.593 -47.7592L446.235 -60.2361C447.724 -61.2336 449.217 -62.2259 450.714 -63.2129ZM441.773 -57.2237L450.222 -44.8084C448.768 -43.8191 447.318 -42.8245 445.872 -41.8248L437.333 -54.1778C438.809 -55.1984 440.289 -56.2137 441.773 -57.2237ZM432.915 -51.1002L441.545 -38.8101C440.107 -37.8 438.672 -36.7848 437.241 -35.7645L428.522 -47.9911C429.982 -49.0327 431.447 -50.0691 432.915 -51.1002ZM424.152 -44.8507L432.961 -32.6882C431.538 -31.6576 430.119 -30.622 428.704 -29.5813L419.806 -41.6791C421.251 -42.7415 422.7 -43.7987 424.152 -44.8507ZM415.484 -38.4759L424.47 -26.4435C423.061 -25.3913 421.656 -24.3341 420.255 -23.2718L411.182 -35.2382C412.612 -36.3226 414.046 -37.4018 415.484 -38.4759ZM406.904 -31.9696L416.064 -20.07C414.672 -18.9977 413.283 -17.9204 411.898 -16.8381L402.65 -28.6705C404.064 -29.7753 405.482 -30.875 406.904 -31.9696ZM398.422 -25.341L407.756 -13.5764C406.379 -12.4843 405.007 -11.3871 403.638 -10.2851L394.219 -21.9811C395.616 -23.1061 397.017 -24.2261 398.422 -25.341ZM390.041 -18.5912C388.652 -17.4556 387.267 -16.3151 385.886 -15.1696L395.475 -3.61231C396.828 -4.73449 398.184 -5.8518 399.545 -6.96423L390.041 -18.5912ZM381.756 -11.7169C380.383 -10.561 379.015 -9.40022 377.651 -8.23451L387.408 3.18143C388.744 2.03946 390.084 0.902309 391.429 -0.230001L381.756 -11.7169ZM373.572 -4.72262L383.412 6.62177C382.085 7.77335 380.761 8.92972 379.442 10.0909L369.52 -1.18144C370.866 -2.36671 372.217 -3.5471 373.572 -4.72262ZM365.493 2.38897L375.498 13.5885C374.187 14.7592 372.881 15.9346 371.579 17.1147L361.493 5.98843C362.822 4.78379 364.156 3.58396 365.493 2.38897ZM357.518 9.61822L367.685 20.6706C366.392 21.8606 365.102 23.0553 363.818 24.2547L353.57 13.2767C354.882 12.0525 356.198 10.833 357.518 9.61822ZM349.649 16.9638L359.976 27.8666C358.7 29.0753 357.429 30.2886 356.162 31.5065L345.755 20.6792C347.049 19.4361 348.347 18.1976 349.649 16.9638ZM341.888 24.4229L352.374 35.1739C351.115 36.401 349.862 37.6326 348.612 38.8689L338.049 28.1946C339.324 26.9327 340.604 25.6755 341.888 24.4229ZM334.238 31.9942L344.878 42.5911C343.638 43.8364 342.403 45.0862 341.172 46.3405L330.454 35.8215C331.71 34.5412 332.972 33.2654 334.238 31.9942ZM326.698 39.6764L337.492 50.1169C336.27 51.3802 335.053 52.648 333.84 53.9201L322.97 43.5587C324.208 42.26 325.451 40.9659 326.698 39.6764ZM319.271 47.4682L330.216 57.7501C329.013 59.0311 327.814 60.3166 326.62 61.6065L315.6 51.4048C316.819 50.0881 318.042 48.7759 319.271 47.4682ZM311.958 55.3682L323.052 65.4893C321.868 66.7874 320.688 68.0898 319.513 69.3966L308.345 59.3568C309.545 58.0228 310.749 56.6933 311.958 55.3682ZM304.762 63.3718C303.573 64.7146 302.388 66.0617 301.208 67.4132L312.522 77.289C313.678 75.965 314.838 74.6453 316.003 73.3299L304.762 63.3718ZM297.684 71.4809L309.069 81.2738C307.923 82.6063 306.781 83.9431 305.645 85.2842L294.188 75.5746C295.349 74.2057 296.514 72.8411 297.684 71.4809ZM290.723 79.6942L302.25 89.3198C301.123 90.6687 300.002 92.0219 298.885 93.3792L287.288 83.838C288.428 82.4525 289.573 81.0712 290.723 79.6942ZM283.885 88.0053L295.551 97.4615C294.445 98.8265 293.343 100.196 292.247 101.569L280.512 92.198C281.631 90.7962 282.756 89.3987 283.885 88.0053ZM277.169 96.4158L288.972 105.701C287.886 107.082 286.804 108.467 285.727 109.857L273.856 100.659C274.956 99.2402 276.06 97.8259 277.169 96.4158ZM270.574 104.926L282.512 114.037C281.445 115.435 280.384 116.837 279.327 118.242L267.323 109.219C268.402 107.784 269.486 106.353 270.574 104.926ZM264.106 113.531L276.176 122.466C275.131 123.878 274.091 125.294 273.056 126.713L260.921 117.866C261.978 116.417 263.039 114.972 264.106 113.531ZM257.767 122.226L269.966 130.984C268.941 132.412 267.921 133.843 266.907 135.278L254.644 126.61C255.68 125.144 256.721 123.683 257.767 122.226ZM251.552 131.017L263.878 139.596C262.874 141.039 261.875 142.486 260.881 143.936L248.493 135.448C249.507 133.967 250.527 132.49 251.552 131.017ZM245.466 139.901L257.917 148.297C256.935 149.753 255.958 151.213 254.987 152.676L242.475 144.37C243.467 142.877 244.464 141.387 245.466 139.901ZM239.516 148.863L252.088 157.077C251.128 158.548 250.172 160.022 249.221 161.501L236.589 153.379C237.56 151.87 238.535 150.365 239.516 148.863ZM233.695 157.918L246.386 165.947C245.446 167.432 244.512 168.921 243.583 170.414L230.833 162.479C231.782 160.955 232.736 159.435 233.695 157.918ZM228.004 167.063L240.811 174.904C239.894 176.402 238.983 177.903 238.077 179.408L225.212 171.661C226.137 170.125 227.067 168.592 228.004 167.063ZM222.454 176.279L235.376 183.931C234.481 185.442 233.591 186.957 232.707 188.475L219.73 180.918C220.633 179.368 221.541 177.821 222.454 176.279ZM217.039 185.579L230.071 193.04C229.198 194.566 228.33 196.094 227.467 197.627L214.38 190.261C215.261 188.697 216.147 187.136 217.039 185.579ZM211.756 194.965L224.897 202.234C224.046 203.772 223.2 205.314 222.36 206.859L209.166 199.687C210.024 198.11 210.887 196.535 211.756 194.965ZM206.616 204.42L219.863 211.495C219.036 213.043 218.214 214.595 217.398 216.15L204.1 209.173C204.933 207.585 205.772 206.001 206.616 204.42ZM201.618 213.947L214.967 220.826C214.162 222.388 213.362 223.953 212.569 225.522L199.169 218.741C199.98 217.14 200.796 215.542 201.618 213.947ZM196.755 223.556L210.204 230.237C209.422 231.812 208.645 233.391 207.874 234.972L194.376 228.39C195.163 226.775 195.956 225.164 196.755 223.556ZM192.035 233.235L205.581 239.717C204.824 241.3 204.072 242.886 203.326 244.475L189.732 238.092C190.494 236.47 191.262 234.851 192.035 233.235ZM187.465 242.969L201.105 249.251C200.37 250.847 199.641 252.445 198.918 254.047L185.231 247.866C185.97 246.23 186.714 244.598 187.465 242.969ZM183.033 252.781L196.765 258.861C196.053 260.469 195.346 262.08 194.646 263.694L180.87 257.715C181.585 256.067 182.306 254.423 183.033 252.781ZM178.742 262.669L192.562 268.545C191.876 270.159 191.195 271.776 190.521 273.395L176.658 267.621C177.347 265.967 178.041 264.316 178.742 262.669ZM174.609 272.591L188.514 278.263C187.851 279.888 187.194 281.517 186.543 283.148L172.596 277.579C173.261 275.913 173.932 274.251 174.609 272.591ZM170.618 282.585L184.606 288.051C183.966 289.688 183.332 291.328 182.704 292.972L168.677 287.609C169.318 285.932 169.965 284.257 170.618 282.585ZM166.771 292.651L180.837 297.909C180.222 299.556 179.612 301.205 179.009 302.857L164.903 297.703C165.52 296.016 166.142 294.332 166.771 292.651ZM163.079 302.756L177.222 307.805C176.632 309.457 176.048 311.112 175.47 312.77L161.29 307.825C161.88 306.132 162.476 304.443 163.079 302.756ZM159.537 312.911L173.753 317.751C173.187 319.415 172.626 321.081 172.072 322.749L157.821 318.015C158.387 316.311 158.959 314.61 159.537 312.911ZM156.141 323.135L170.427 327.763C169.885 329.438 169.348 331.114 168.818 332.794L154.497 328.271C155.039 326.556 155.587 324.844 156.141 323.135ZM152.897 333.406C152.37 335.116 151.85 336.83 151.336 338.546L165.721 342.856C166.225 341.176 166.734 339.498 167.25 337.823L152.897 333.406ZM149.812 343.701L164.228 347.905C163.737 349.591 163.251 351.279 162.772 352.97L148.324 348.872C148.814 347.146 149.31 345.422 149.812 343.701ZM146.874 354.059L161.351 358.05C160.884 359.746 160.423 361.444 159.967 363.145L145.461 359.262C145.926 357.525 146.397 355.791 146.874 354.059ZM144.085 364.479L158.62 368.255C158.179 369.951 157.745 371.649 157.317 373.35L142.754 369.682C143.192 367.945 143.635 366.211 144.085 364.479ZM141.461 374.895L156.051 378.456C155.635 380.16 155.225 381.867 154.821 383.576L140.206 380.123C140.618 378.378 141.037 376.635 141.461 374.895ZM138.988 385.366L153.628 388.71C153.237 390.424 152.851 392.14 152.472 393.859L137.807 390.623C138.195 388.868 138.588 387.116 138.988 385.366ZM136.665 395.894L151.353 399.021C150.986 400.743 150.626 402.466 150.272 404.192L135.561 401.174C135.922 399.411 136.29 397.651 136.665 395.894ZM134.502 406.433L149.234 409.344C148.894 411.063 148.561 412.785 148.234 414.508L133.48 411.706C133.814 409.946 134.155 408.189 134.502 406.433ZM132.496 416.993L147.27 419.686C146.955 421.414 146.646 423.145 146.343 424.877L131.55 422.293C131.859 420.524 132.174 418.757 132.496 416.993ZM130.642 427.606L145.454 430.081C145.164 431.818 144.88 433.556 144.602 435.297L129.772 432.932C130.056 431.154 130.346 429.379 130.642 427.606ZM128.943 438.256L143.79 440.512C143.527 442.243 143.27 443.975 143.02 445.71L128.157 443.562C128.412 441.791 128.675 440.022 128.943 438.256ZM127.408 448.881L142.286 450.919C142.048 452.658 141.816 454.398 141.59 456.141L126.697 454.211C126.928 452.432 127.165 450.655 127.408 448.881ZM126.025 459.554L140.932 461.374C140.719 463.121 140.512 464.869 140.311 466.619L125.391 464.909C125.596 463.122 125.807 461.337 126.025 459.554ZM124.796 470.275L139.728 471.876C139.54 473.623 139.359 475.371 139.185 477.122L124.242 475.63C124.42 473.843 124.605 472.058 124.796 470.275ZM123.728 480.968L138.682 482.351C138.52 484.096 138.365 485.843 138.216 487.591L123.253 486.317C123.405 484.532 123.563 482.749 123.728 480.968ZM122.816 491.678L137.789 492.843C137.652 494.595 137.522 496.349 137.398 498.105L122.418 497.049C122.544 495.257 122.677 493.466 122.816 491.678ZM122.059 502.431L137.046 503.377C136.935 505.137 136.83 506.898 136.732 508.66L121.738 507.823C121.838 506.024 121.945 504.226 122.059 502.431ZM121.457 513.196L136.457 513.925C136.372 515.672 136.294 517.421 136.221 519.172L121.217 518.552C121.29 516.765 121.371 514.98 121.457 513.196ZM121.014 523.918L136.023 524.429C135.963 526.183 135.91 527.939 135.862 529.696L120.85 529.293C120.899 527.5 120.953 525.708 121.014 523.918ZM120.725 534.678L135.74 534.973C135.705 536.733 135.677 538.495 135.655 540.259L120.639 540.073C120.661 538.273 120.69 536.475 120.725 534.678ZM120.591 545.477C120.587 546.378 120.584 547.279 120.582 548.181C120.581 549.083 120.581 549.985 120.583 550.886L135.6 550.856C135.598 549.972 135.598 549.089 135.599 548.204C135.601 547.321 135.604 546.437 135.608 545.554L120.591 545.477ZM120.613 556.29L135.63 556.151C135.646 557.915 135.669 559.677 135.698 561.437L120.683 561.685C120.653 559.888 120.63 558.09 120.613 556.29ZM120.791 567.07L135.804 566.714C135.846 568.472 135.894 570.228 135.948 571.982L120.938 572.446C120.882 570.656 120.833 568.864 120.791 567.07ZM121.123 577.812L136.13 577.24C136.196 578.991 136.27 580.74 136.349 582.488L121.347 583.169C121.266 581.385 121.191 579.6 121.123 577.812ZM121.611 588.543L136.607 587.753C136.7 589.516 136.799 591.278 136.905 593.037L121.914 593.936C121.807 592.14 121.705 590.343 121.611 588.543ZM122.257 599.319L137.24 598.311C137.359 600.067 137.483 601.821 137.614 603.574L122.638 604.692C122.505 602.903 122.378 601.112 122.257 599.319ZM123.058 610.053L138.025 608.827C138.169 610.576 138.318 612.323 138.474 614.068L123.516 615.404C123.357 613.622 123.204 611.839 123.058 610.053ZM124.013 620.744L138.96 619.299C139.13 621.05 139.305 622.799 139.487 624.547L124.55 626.101C124.365 624.317 124.185 622.531 124.013 620.744ZM125.129 631.469L140.054 629.805C140.249 631.556 140.45 633.305 140.658 635.052L125.746 636.825C125.534 635.042 125.328 633.256 125.129 631.469ZM126.401 642.17L141.3 640.288C141.52 642.031 141.747 643.772 141.979 645.511L127.095 647.503C126.857 645.728 126.626 643.95 126.401 642.17ZM127.827 652.824L142.696 650.723C142.941 652.458 143.193 654.192 143.45 655.923L128.596 658.133C128.333 656.365 128.077 654.596 127.827 652.824ZM129.409 663.459L144.246 661.14C144.518 662.882 144.797 664.622 145.082 666.36L130.262 668.788C129.971 667.014 129.687 665.238 129.409 663.459ZM131.153 674.104L145.954 671.566C146.252 673.299 146.555 675.031 146.865 676.76L132.082 679.406C131.766 677.641 131.456 675.873 131.153 674.104ZM133.049 684.696L147.812 681.941C148.134 683.665 148.462 685.388 148.796 687.108L134.054 689.973C133.713 688.216 133.378 686.457 133.049 684.696ZM135.097 695.235L149.817 692.263C150.166 693.99 150.521 695.715 150.882 697.437L136.184 700.519C135.815 698.76 135.453 696.999 135.097 695.235ZM137.31 705.793L151.985 702.603C152.359 704.323 152.739 706.041 153.125 707.756L138.474 711.054C138.08 709.303 137.692 707.549 137.31 705.793ZM139.676 716.3L154.302 712.894C154.7 714.604 155.105 716.312 155.515 718.018L140.915 721.532C140.496 719.791 140.083 718.047 139.676 716.3ZM142.191 726.75L156.765 723.128C157.188 724.83 157.617 726.53 158.052 728.227L143.505 731.956C143.061 730.223 142.623 728.488 142.191 726.75ZM144.865 737.178L159.384 733.341C159.834 735.043 160.29 736.743 160.752 738.44L146.262 742.385C145.79 740.652 145.324 738.916 144.865 737.178ZM147.696 747.577L162.156 743.525C162.63 745.217 163.11 746.907 163.597 748.594L149.167 752.753C148.67 751.03 148.18 749.305 147.696 747.577ZM150.674 757.913L165.073 753.648C165.572 755.33 166.076 757.009 166.586 758.686L152.219 763.058C151.698 761.345 151.183 759.631 150.674 757.913ZM153.804 768.197L168.138 763.72C168.663 765.401 169.194 767.079 169.732 768.755L155.431 773.339C154.882 771.628 154.34 769.914 153.804 768.197ZM157.095 778.464L171.361 773.775C171.91 775.445 172.465 777.113 173.026 778.778L158.795 783.573C158.222 781.873 157.655 780.17 157.095 778.464ZM160.531 788.665L174.727 783.765C175.3 785.424 175.879 787.081 176.463 788.735L162.304 793.74C161.707 792.051 161.116 790.359 160.531 788.665ZM164.113 798.798L178.235 793.688C178.833 795.343 179.438 796.994 180.048 798.642L165.964 803.856C165.341 802.173 164.724 800.487 164.113 798.798ZM167.855 808.904L181.899 803.586C182.522 805.231 183.15 806.873 183.785 808.512L169.781 813.934C169.133 812.26 168.491 810.583 167.855 808.904ZM171.742 818.946L185.706 813.421C186.353 815.055 187.005 816.685 187.663 818.313L173.74 823.941C173.068 822.279 172.402 820.614 171.742 818.946ZM175.773 828.917L189.654 823.186C190.323 824.808 190.999 826.427 191.68 828.043L177.841 833.876C177.146 832.226 176.456 830.573 175.773 828.917ZM179.954 838.836L193.748 832.901C194.444 834.517 195.145 836.13 195.852 837.74L182.101 843.777C181.379 842.133 180.664 840.486 179.954 838.836ZM184.284 848.699L197.99 842.561C198.708 844.165 199.432 845.766 200.162 847.364L186.502 853.603C185.757 851.972 185.017 850.337 184.284 848.699ZM188.754 858.487L202.368 852.147C203.109 853.738 203.856 855.327 204.608 856.912L191.041 863.351C190.273 861.733 189.511 860.112 188.754 858.487ZM193.367 868.204L206.885 861.664C207.652 863.248 208.424 864.829 209.201 866.406L195.731 873.046C194.937 871.435 194.149 869.821 193.367 868.204ZM198.13 877.868L211.551 871.129C212.339 872.7 213.134 874.268 213.934 875.833L200.563 882.67C199.746 881.072 198.935 879.472 198.13 877.868ZM203.03 887.451L216.35 880.516C217.162 882.074 217.978 883.628 218.8 885.179L205.532 892.212C204.692 890.629 203.858 889.042 203.03 887.451ZM208.067 896.953L221.283 889.822C222.118 891.37 222.959 892.915 223.805 894.456L210.641 901.683C209.778 900.11 208.919 898.533 208.067 896.953ZM213.251 906.395L226.361 899.071C227.219 900.606 228.082 902.138 228.95 903.666L215.894 911.086C215.008 909.526 214.127 907.963 213.251 906.395ZM218.571 915.756L231.572 908.239C232.452 909.76 233.336 911.278 234.226 912.792L221.281 920.404C220.372 918.858 219.469 917.309 218.571 915.756ZM224.024 925.029L236.913 917.323C237.815 918.831 238.721 920.335 239.633 921.836L226.801 929.636C225.87 928.104 224.944 926.569 224.024 925.029ZM229.616 934.229L242.391 926.334C243.315 927.83 244.245 929.322 245.18 930.811L232.464 938.799C231.509 937.279 230.56 935.756 229.616 934.229ZM235.344 943.347L248.001 935.266C248.947 936.747 249.898 938.224 250.854 939.698L238.256 947.872C237.28 946.368 236.309 944.859 235.344 943.347ZM241.201 952.374L253.739 944.108C254.706 945.575 255.678 947.037 256.655 948.496L244.178 956.854C243.18 955.365 242.188 953.871 241.201 952.374ZM247.19 961.315L259.606 952.867C260.595 954.321 261.589 955.771 262.589 957.217L250.236 965.756C249.216 964.28 248.2 962.8 247.19 961.315ZM253.314 970.173L265.604 961.544C266.614 962.982 267.629 964.417 268.649 965.848L256.423 974.567C255.381 973.106 254.345 971.642 253.314 970.173ZM259.563 978.937L271.726 970.128C272.756 971.551 273.792 972.97 274.833 974.385L262.735 983.282C261.673 981.838 260.615 980.389 259.563 978.937ZM265.938 987.604L277.97 978.619C279.023 980.028 280.08 981.433 281.142 982.834L269.176 991.907C268.091 990.477 267.012 989.043 265.938 987.604ZM272.444 996.185L284.344 987.024C285.416 988.417 286.494 989.806 287.576 991.191L275.743 1000.44C274.639 999.025 273.539 997.607 272.444 996.185ZM279.073 1004.67L290.838 995.333C291.93 996.71 293.027 998.082 294.129 999.451L282.433 1008.87C281.308 1007.47 280.188 1006.07 279.073 1004.67ZM285.823 1013.05C286.958 1014.44 288.099 1015.82 289.244 1017.2L300.802 1007.61C299.679 1006.26 298.562 1004.9 297.45 1003.54L285.823 1013.05ZM292.697 1021.33C293.853 1022.71 295.014 1024.07 296.179 1025.44L307.595 1015.68C306.453 1014.34 305.316 1013 304.184 1011.66L292.697 1021.33ZM299.691 1029.52L311.036 1019.68C312.187 1021 313.344 1022.33 314.505 1023.65L303.233 1033.57C302.047 1032.22 300.867 1030.87 299.691 1029.52ZM306.803 1037.6L318.002 1027.59C319.173 1028.9 320.349 1030.21 321.529 1031.51L310.402 1041.6C309.198 1040.27 307.998 1038.93 306.803 1037.6ZM314.032 1045.57L325.085 1035.4C326.275 1036.7 327.469 1037.99 328.669 1039.27L317.691 1049.52C316.466 1048.21 315.247 1046.89 314.032 1045.57ZM321.378 1053.44L332.281 1043.11C333.489 1044.39 334.703 1045.66 335.92 1046.93L325.093 1057.33C323.85 1056.04 322.612 1054.74 321.378 1053.44ZM328.837 1061.2L339.588 1050.72C340.815 1051.97 342.047 1053.23 343.283 1054.48L332.609 1065.04C331.347 1063.76 330.089 1062.48 328.837 1061.2ZM336.408 1068.85C337.679 1070.12 338.955 1071.38 340.236 1072.63L350.754 1061.92C349.5 1060.69 348.25 1059.45 347.005 1058.21L336.408 1068.85ZM344.09 1076.39L354.531 1065.6C355.794 1066.82 357.062 1068.04 358.334 1069.25L347.973 1080.12C346.674 1078.88 345.38 1077.64 344.09 1076.39ZM351.882 1083.82L362.164 1072.87C363.445 1074.08 364.731 1075.27 366.02 1076.47L355.819 1087.49C354.502 1086.27 353.19 1085.05 351.882 1083.82ZM359.782 1091.13L369.903 1080.04C371.201 1081.22 372.504 1082.4 373.811 1083.58L363.771 1094.74C362.437 1093.54 361.107 1092.34 359.782 1091.13ZM367.786 1098.33L377.744 1087.09C379.059 1088.25 380.379 1089.41 381.703 1090.57L371.827 1101.88C370.476 1100.7 369.129 1099.52 367.786 1098.33ZM375.895 1105.41L385.688 1094.02C387.02 1095.17 388.357 1096.31 389.698 1097.44L379.989 1108.9C378.62 1107.74 377.255 1106.57 375.895 1105.41ZM384.108 1112.37L393.734 1100.84C395.083 1101.97 396.436 1103.09 397.793 1104.2L388.252 1115.8C386.866 1114.66 385.485 1113.52 384.108 1112.37ZM392.419 1119.2L401.875 1107.54C403.24 1108.64 404.609 1109.75 405.983 1110.84L396.612 1122.58C395.21 1121.46 393.813 1120.33 392.419 1119.2ZM400.83 1125.92L410.114 1114.12C411.496 1115.2 412.881 1116.28 414.271 1117.36L405.073 1129.23C403.654 1128.13 402.24 1127.03 400.83 1125.92ZM409.34 1132.51L418.451 1120.58C419.849 1121.64 421.251 1122.71 422.656 1123.76L413.633 1135.77C412.198 1134.69 410.767 1133.6 409.34 1132.51ZM417.945 1138.98L426.88 1126.91C428.292 1127.96 429.708 1129 431.127 1130.03L422.28 1142.17C420.831 1141.11 419.386 1140.05 417.945 1138.98ZM426.64 1145.32L435.398 1133.12C436.826 1134.15 438.257 1135.17 439.692 1136.18L431.024 1148.44C429.558 1147.41 428.097 1146.37 426.64 1145.32ZM435.431 1151.54L444.01 1139.21C445.453 1140.21 446.9 1141.21 448.35 1142.21L439.862 1154.6C438.381 1153.58 436.904 1152.56 435.431 1151.54ZM444.314 1157.62L452.711 1145.17C454.167 1146.15 455.627 1147.13 457.09 1148.1L448.784 1160.61C447.291 1159.62 445.801 1158.62 444.314 1157.62ZM453.277 1163.57C454.779 1164.55 456.284 1165.53 457.793 1166.5L465.915 1153.87C464.436 1152.92 462.962 1151.96 461.491 1151L453.277 1163.57ZM462.332 1169.39L470.36 1156.7C471.846 1157.64 473.335 1158.58 474.828 1159.51L466.893 1172.26C465.369 1171.31 463.849 1170.35 462.332 1169.39ZM471.477 1175.09L479.318 1162.28C480.816 1163.19 482.317 1164.11 483.822 1165.01L476.075 1177.88C474.539 1176.95 473.006 1176.02 471.477 1175.09ZM480.692 1180.63L488.345 1167.71C489.856 1168.61 491.371 1169.5 492.889 1170.38L485.332 1183.36C483.782 1182.46 482.235 1181.55 480.692 1180.63ZM489.993 1186.05L497.454 1173.02C498.979 1173.89 500.508 1174.76 502.041 1175.62L494.675 1188.71C493.111 1187.83 491.55 1186.94 489.993 1186.05ZM499.379 1191.33L506.648 1178.19C508.186 1179.04 509.728 1179.89 511.273 1180.73L504.101 1193.92C502.524 1193.06 500.95 1192.2 499.379 1191.33ZM508.834 1196.47C510.415 1197.32 511.999 1198.16 513.587 1198.99L520.564 1185.69C519.009 1184.87 517.457 1184.05 515.909 1183.23L508.834 1196.47ZM518.361 1201.47L525.24 1188.12C526.802 1188.93 528.367 1189.73 529.936 1190.52L523.155 1203.92C521.554 1203.11 519.955 1202.29 518.361 1201.47ZM527.969 1206.33L534.651 1192.88C536.226 1193.67 537.805 1194.44 539.386 1195.22L532.804 1208.71C531.189 1207.93 529.578 1207.13 527.969 1206.33ZM537.649 1211.05L544.131 1197.51C545.714 1198.26 547.3 1199.02 548.889 1199.76L542.506 1213.36C540.884 1212.59 539.265 1211.83 537.649 1211.05ZM547.383 1215.62L553.665 1201.98C555.261 1202.72 556.859 1203.45 558.461 1204.17L552.279 1217.86C550.644 1217.12 549.012 1216.37 547.383 1215.62ZM557.195 1220.06L563.275 1206.32C564.883 1207.04 566.494 1207.74 568.108 1208.44L562.129 1222.22C560.481 1221.5 558.837 1220.78 557.195 1220.06ZM567.083 1224.35L572.959 1210.53C574.573 1211.21 576.19 1211.89 577.809 1212.57L572.035 1226.43C570.381 1225.74 568.73 1225.05 567.083 1224.35ZM577.005 1228.48L582.677 1214.57C584.302 1215.24 585.931 1215.89 587.562 1216.55L581.993 1230.49C580.327 1229.83 578.665 1229.16 577.005 1228.48ZM586.999 1232.47L592.465 1218.48C594.102 1219.12 595.742 1219.76 597.386 1220.38L592.023 1234.41C590.346 1233.77 588.671 1233.12 586.999 1232.47ZM597.065 1236.32L602.323 1222.25C603.97 1222.87 605.619 1223.48 607.271 1224.08L602.117 1238.19C600.43 1237.57 598.746 1236.95 597.065 1236.32ZM607.17 1240.01L612.219 1225.87C613.871 1226.46 615.526 1227.04 617.184 1227.62L612.239 1241.8C610.546 1241.21 608.857 1240.61 607.17 1240.01ZM617.325 1243.55L622.165 1229.34C623.829 1229.9 625.494 1230.46 627.163 1231.02L622.429 1245.27C620.725 1244.7 619.024 1244.13 617.325 1243.55ZM627.549 1246.95L632.177 1232.66C633.852 1233.2 635.528 1233.74 637.208 1234.27L632.685 1248.59C630.97 1248.05 629.258 1247.5 627.549 1246.95ZM637.82 1250.19L642.236 1235.84C643.912 1236.35 645.59 1236.86 647.27 1237.37L642.959 1251.75C641.244 1251.24 639.53 1250.72 637.82 1250.19ZM648.115 1253.28L652.319 1238.86C654.005 1239.35 655.693 1239.84 657.384 1240.32L653.286 1254.76C651.56 1254.27 649.836 1253.78 648.115 1253.28ZM658.473 1256.21L662.464 1241.74C664.16 1242.2 665.858 1242.67 667.559 1243.12L663.676 1257.63C661.939 1257.16 660.205 1256.69 658.473 1256.21ZM668.893 1259L672.669 1244.47C674.365 1244.91 676.063 1245.34 677.763 1245.77L674.095 1260.33C672.359 1259.9 670.625 1259.45 668.893 1259ZM679.309 1261.63L682.869 1247.04C684.574 1247.45 686.281 1247.86 687.99 1248.27L684.537 1262.88C682.792 1262.47 681.049 1262.05 679.309 1261.63ZM689.78 1264.1C691.53 1264.5 693.282 1264.89 695.037 1265.28L698.273 1250.62C696.554 1250.24 694.838 1249.85 693.124 1249.46L689.78 1264.1ZM700.308 1266.42L703.435 1251.74C705.157 1252.1 706.88 1252.46 708.606 1252.82L705.588 1267.53C703.825 1267.17 702.065 1266.8 700.308 1266.42ZM710.847 1268.59L713.758 1253.85C715.477 1254.19 717.199 1254.53 718.922 1254.86L716.12 1269.61C714.36 1269.27 712.603 1268.93 710.847 1268.59ZM721.407 1270.59L724.1 1255.82C725.828 1256.13 727.559 1256.44 729.291 1256.75L726.707 1271.54C724.938 1271.23 723.171 1270.91 721.407 1270.59ZM732.02 1272.45L734.495 1257.63C736.232 1257.92 737.97 1258.21 739.711 1258.49L737.346 1273.32C735.568 1273.03 733.793 1272.74 732.02 1272.45ZM742.67 1274.15L744.926 1259.3C746.657 1259.56 748.389 1259.82 750.124 1260.07L747.976 1274.93C746.205 1274.68 744.436 1274.41 742.67 1274.15ZM753.294 1275.68L755.333 1260.8C757.072 1261.04 758.812 1261.27 760.555 1261.5L758.625 1276.39C756.846 1276.16 755.069 1275.92 753.294 1275.68ZM763.968 1277.06L765.788 1262.16C766.853 1262.29 767.918 1262.41 768.984 1262.54C769.667 1262.62 770.35 1262.7 771.033 1262.78L769.322 1277.7C767.536 1277.49 765.751 1277.28 763.968 1277.06ZM774.689 1278.29L776.29 1263.36C777.067 1263.44 777.844 1263.53 778.622 1263.61C779.593 1263.71 780.564 1263.81 781.536 1263.9L780.044 1278.85C778.257 1278.67 776.472 1278.48 774.689 1278.29ZM785.382 1279.36L786.765 1264.41C788.51 1264.57 790.257 1264.72 792.005 1264.87L790.731 1279.84C788.946 1279.68 787.163 1279.53 785.382 1279.36ZM796.092 1280.27L797.257 1265.3C799.009 1265.44 800.763 1265.57 802.519 1265.69L801.463 1280.67C799.671 1280.54 797.88 1280.41 796.092 1280.27ZM806.845 1281.03L807.791 1266.04C809.55 1266.15 811.311 1266.26 813.074 1266.36L812.237 1281.35C810.438 1281.25 808.64 1281.14 806.845 1281.03ZM817.61 1281.63L818.339 1266.63C820.086 1266.72 821.835 1266.8 823.586 1266.87L822.966 1281.87C821.179 1281.8 819.394 1281.72 817.61 1281.63ZM828.332 1282.07L828.843 1267.07C830.597 1267.13 832.353 1267.18 834.11 1267.23L833.707 1282.24C831.914 1282.19 830.122 1282.14 828.332 1282.07ZM839.092 1282.36L839.387 1267.35C841.147 1267.38 842.909 1267.41 844.673 1267.43L844.486 1282.45C842.687 1282.43 840.889 1282.4 839.092 1282.36ZM849.891 1282.5L849.968 1267.48C850.851 1267.48 851.735 1267.49 852.618 1267.49C853.503 1267.49 854.386 1267.49 855.27 1267.49L855.3 1282.51C854.399 1282.51 853.497 1282.51 852.595 1282.51C851.693 1282.51 850.792 1282.5 849.891 1282.5ZM860.704 1282.48L860.565 1267.46C862.329 1267.44 864.091 1267.42 865.851 1267.39L866.099 1282.41C864.302 1282.44 862.504 1282.46 860.704 1282.48ZM871.484 1282.3L871.128 1267.28C872.886 1267.24 874.642 1267.2 876.396 1267.14L876.86 1282.15C875.07 1282.21 873.278 1282.26 871.484 1282.3ZM882.226 1281.97L881.654 1266.96C882.65 1266.92 883.645 1266.88 884.64 1266.84C885.394 1266.81 886.148 1266.77 886.902 1266.74L887.583 1281.74C885.799 1281.82 884.013 1281.9 882.226 1281.97ZM892.957 1281.48L892.167 1266.48C893.93 1266.39 895.692 1266.29 897.451 1266.18L898.35 1281.17C896.554 1281.28 894.756 1281.38 892.957 1281.48ZM903.733 1280.83L902.725 1265.85C904.481 1265.73 906.235 1265.61 907.988 1265.47L909.106 1280.45C907.317 1280.58 905.526 1280.71 903.733 1280.83ZM914.467 1280.03L913.241 1265.06C914.99 1264.92 916.737 1264.77 918.482 1264.61L919.818 1279.57C918.036 1279.73 916.253 1279.88 914.467 1280.03ZM925.158 1279.08L923.713 1264.13C925.464 1263.96 927.213 1263.78 928.961 1263.6L930.515 1278.54C928.731 1278.72 926.945 1278.9 925.158 1279.08ZM935.883 1277.96C937.67 1277.76 939.456 1277.56 941.239 1277.34L939.466 1262.43C937.719 1262.64 935.97 1262.84 934.219 1263.04L935.883 1277.96ZM946.584 1276.69L944.702 1261.79C946.445 1261.57 948.186 1261.34 949.925 1261.11L951.917 1275.99C950.142 1276.23 948.364 1276.46 946.584 1276.69ZM957.238 1275.26L955.137 1260.39C956.872 1260.15 958.606 1259.9 960.337 1259.64L962.547 1274.49C960.779 1274.76 959.01 1275.01 957.238 1275.26ZM967.873 1273.68L965.554 1258.84C967.296 1258.57 969.036 1258.29 970.774 1258.01L973.202 1272.83C971.428 1273.12 969.652 1273.4 967.873 1273.68ZM978.518 1271.94L975.98 1257.13C977.713 1256.84 979.445 1256.53 981.174 1256.22L983.82 1271.01C982.055 1271.32 980.287 1271.63 978.518 1271.94ZM989.11 1270.04L986.355 1255.28C988.079 1254.95 989.802 1254.63 991.522 1254.29L994.386 1269.03C992.63 1269.38 990.871 1269.71 989.11 1270.04ZM999.649 1267.99L996.677 1253.27C998.404 1252.92 1000.13 1252.57 1001.85 1252.21L1004.93 1266.9C1003.17 1267.27 1001.41 1267.64 999.649 1267.99ZM1010.21 1265.78L1007.02 1251.1C1008.74 1250.73 1010.45 1250.35 1012.17 1249.96L1015.47 1264.61C1013.72 1265.01 1011.96 1265.4 1010.21 1265.78ZM1020.71 1263.41L1017.31 1248.79C1018.13 1248.6 1018.94 1248.4 1019.76 1248.21C1020.65 1248 1021.54 1247.79 1022.43 1247.57L1025.95 1262.17C1024.2 1262.59 1022.46 1263.01 1020.71 1263.41ZM1031.16 1260.9L1027.54 1246.32C1028.43 1246.1 1029.31 1245.88 1030.19 1245.66C1031.01 1245.45 1031.82 1245.25 1032.64 1245.04L1036.37 1259.58C1034.64 1260.03 1032.9 1260.47 1031.16 1260.9ZM1041.59 1258.22L1037.75 1243.71C1039.46 1243.26 1041.16 1242.8 1042.85 1242.34L1046.8 1256.83C1045.07 1257.3 1043.33 1257.76 1041.59 1258.22ZM1051.99 1255.39L1047.94 1240.93C1049.63 1240.46 1051.32 1239.98 1053.01 1239.49L1057.17 1253.92C1055.44 1254.42 1053.72 1254.91 1051.99 1255.39ZM1062.33 1252.41L1058.06 1238.02C1059.74 1237.52 1061.42 1237.01 1063.1 1236.5L1067.47 1250.87C1065.76 1251.39 1064.04 1251.91 1062.33 1252.41ZM1072.61 1249.28L1068.13 1234.95C1069.81 1234.43 1071.49 1233.89 1073.17 1233.36L1077.75 1247.66C1076.04 1248.21 1074.33 1248.75 1072.61 1249.28ZM1082.88 1245.99L1078.19 1231.73C1079.86 1231.18 1081.53 1230.62 1083.19 1230.06L1087.99 1244.29C1086.29 1244.87 1084.58 1245.43 1082.88 1245.99ZM1093.08 1242.56L1088.18 1228.36C1089.84 1227.79 1091.49 1227.21 1093.15 1226.63L1098.15 1240.78C1096.46 1241.38 1094.77 1241.97 1093.08 1242.56ZM1103.21 1238.98L1098.1 1224.85C1099.76 1224.26 1101.41 1223.65 1103.06 1223.04L1108.27 1237.12C1106.59 1237.75 1104.9 1238.36 1103.21 1238.98ZM1113.32 1235.23L1108 1221.19C1109.64 1220.57 1111.29 1219.94 1112.93 1219.3L1118.35 1233.31C1116.67 1233.96 1115 1234.6 1113.32 1235.23ZM1123.36 1231.35L1117.84 1217.38C1119.47 1216.74 1121.1 1216.08 1122.73 1215.43L1128.35 1229.35C1126.69 1230.02 1125.03 1230.69 1123.36 1231.35ZM1133.33 1227.32L1127.6 1213.44C1129.22 1212.77 1130.84 1212.09 1132.46 1211.41L1138.29 1225.25C1136.64 1225.94 1134.99 1226.63 1133.33 1227.32ZM1143.25 1223.14L1137.31 1209.34C1138.93 1208.64 1140.54 1207.94 1142.15 1207.24L1148.19 1220.99C1146.55 1221.71 1144.9 1222.43 1143.25 1223.14ZM1153.11 1218.8L1146.98 1205.1C1148.58 1204.38 1150.18 1203.66 1151.78 1202.93L1158.02 1216.59C1156.39 1217.33 1154.75 1218.07 1153.11 1218.8ZM1162.9 1214.33L1156.56 1200.72C1158.15 1199.98 1159.74 1199.23 1161.33 1198.48L1167.77 1212.05C1166.15 1212.82 1164.53 1213.58 1162.9 1214.33ZM1172.62 1209.72L1166.08 1196.2C1167.66 1195.44 1169.24 1194.67 1170.82 1193.89L1177.46 1207.36C1175.85 1208.15 1174.23 1208.94 1172.62 1209.72ZM1182.28 1204.96L1175.54 1191.54C1176.03 1191.29 1176.51 1191.05 1177 1190.81C1178.08 1190.26 1179.17 1189.71 1180.25 1189.16L1187.08 1202.53C1185.49 1203.34 1183.89 1204.15 1182.28 1204.96ZM1191.87 1200.06L1184.93 1186.74C1186.49 1185.93 1188.04 1185.11 1189.59 1184.29L1196.63 1197.56C1195.04 1198.4 1193.46 1199.23 1191.87 1200.06ZM1201.37 1195.02L1194.24 1181.81C1195.78 1180.97 1197.33 1180.13 1198.87 1179.28L1206.1 1192.45C1204.52 1193.31 1202.95 1194.17 1201.37 1195.02ZM1210.81 1189.84L1203.49 1176.73C1205.02 1175.87 1206.55 1175.01 1208.08 1174.14L1215.5 1187.19C1213.94 1188.08 1212.38 1188.96 1210.81 1189.84ZM1220.17 1184.52L1212.65 1171.52C1214.17 1170.64 1215.69 1169.75 1217.21 1168.86L1224.82 1181.81C1223.27 1182.72 1221.72 1183.62 1220.17 1184.52ZM1229.44 1179.07L1221.74 1166.18C1223.24 1165.27 1224.75 1164.37 1226.25 1163.46L1234.05 1176.29C1232.52 1177.22 1230.98 1178.14 1229.44 1179.07ZM1238.64 1173.47L1230.75 1160.7C1232.24 1159.77 1233.74 1158.84 1235.22 1157.91L1243.21 1170.63C1241.69 1171.58 1240.17 1172.53 1238.64 1173.47ZM1247.76 1167.74L1239.68 1155.09C1241.16 1154.14 1242.64 1153.19 1244.11 1152.23L1252.29 1164.83C1250.78 1165.81 1249.27 1166.78 1247.76 1167.74ZM1256.79 1161.89L1248.52 1149.35C1249.27 1148.86 1250.02 1148.36 1250.76 1147.87C1251.48 1147.39 1252.2 1146.91 1252.91 1146.43L1261.27 1158.91C1259.78 1159.91 1258.29 1160.9 1256.79 1161.89ZM1265.73 1155.9L1257.28 1143.48C1258.73 1142.49 1260.18 1141.5 1261.63 1140.5L1270.17 1152.85C1268.69 1153.87 1267.21 1154.89 1265.73 1155.9ZM1274.59 1149.78C1276.06 1148.74 1277.52 1147.71 1278.98 1146.67L1270.26 1134.44C1268.83 1135.46 1267.4 1136.47 1265.96 1137.48L1274.59 1149.78ZM1283.35 1143.53L1274.54 1131.36C1275.46 1130.69 1276.38 1130.02 1277.3 1129.35C1277.8 1128.99 1278.3 1128.62 1278.8 1128.26L1287.7 1140.35C1286.25 1141.42 1284.8 1142.47 1283.35 1143.53ZM1292.02 1137.15L1283.03 1125.12C1284.44 1124.07 1285.85 1123.01 1287.25 1121.95L1296.32 1133.91C1294.89 1135 1293.46 1136.08 1292.02 1137.15ZM1300.6 1130.64L1291.44 1118.74C1292.83 1117.67 1294.22 1116.6 1295.6 1115.51L1304.85 1127.35C1303.44 1128.45 1302.02 1129.55 1300.6 1130.64ZM1309.08 1124.02L1299.75 1112.25C1301.12 1111.16 1302.5 1110.06 1303.86 1108.96L1313.28 1120.66C1311.89 1121.78 1310.49 1122.9 1309.08 1124.02ZM1317.46 1117.27L1307.96 1105.64C1309.32 1104.53 1310.67 1103.41 1312.03 1102.29L1321.62 1113.84C1320.24 1114.99 1318.85 1116.13 1317.46 1117.27ZM1325.75 1110.39L1316.07 1098.9C1317.42 1097.77 1318.76 1096.64 1320.09 1095.49L1329.85 1106.91C1328.49 1108.08 1327.12 1109.24 1325.75 1110.39ZM1333.93 1103.4L1324.09 1092.05C1324.85 1091.39 1325.61 1090.73 1326.37 1090.07C1326.94 1089.57 1327.5 1089.08 1328.06 1088.58L1337.98 1099.86C1336.64 1101.04 1335.29 1102.22 1333.93 1103.4ZM1342.01 1096.29L1332 1085.09C1333.32 1083.92 1334.62 1082.74 1335.92 1081.56L1346.01 1092.69C1344.68 1093.89 1343.35 1095.09 1342.01 1096.29ZM1349.98 1089.06L1339.82 1078C1341.11 1076.81 1342.4 1075.62 1343.69 1074.42L1353.93 1085.4C1352.62 1086.62 1351.3 1087.84 1349.98 1089.06ZM1357.85 1081.71L1347.53 1070.81C1348.27 1070.1 1349.02 1069.39 1349.76 1068.68C1350.29 1068.18 1350.81 1067.67 1351.34 1067.17L1361.75 1078C1360.45 1079.24 1359.16 1080.48 1357.85 1081.71ZM1365.61 1074.25L1355.13 1063.5C1356.39 1062.27 1357.64 1061.04 1358.89 1059.81L1369.45 1070.48C1368.18 1071.74 1366.9 1073 1365.61 1074.25ZM1373.27 1066.68L1362.62 1056.08C1363.86 1054.84 1365.1 1053.59 1366.33 1052.33L1377.05 1062.85C1375.79 1064.13 1374.53 1065.41 1373.27 1066.68ZM1380.8 1059L1370.01 1048.56C1371.23 1047.29 1372.45 1046.03 1373.66 1044.75L1384.53 1055.12C1383.29 1056.41 1382.05 1057.71 1380.8 1059ZM1388.23 1051.21L1377.29 1040.92C1378.49 1039.64 1379.69 1038.36 1380.88 1037.07L1391.9 1047.27C1390.68 1048.59 1389.46 1049.9 1388.23 1051.21ZM1395.55 1043.31L1384.45 1033.19C1385.63 1031.89 1386.81 1030.58 1387.99 1029.28L1399.16 1039.32C1397.96 1040.65 1396.75 1041.98 1395.55 1043.31ZM1402.74 1035.3L1391.5 1025.34C1392.66 1024.03 1393.83 1022.71 1394.98 1021.39L1406.29 1031.26C1405.11 1032.61 1403.93 1033.96 1402.74 1035.3ZM1409.82 1027.19L1398.43 1017.4C1399.58 1016.07 1400.72 1014.73 1401.86 1013.39L1413.31 1023.1C1412.15 1024.47 1410.99 1025.83 1409.82 1027.19ZM1416.78 1018.98L1405.25 1009.36C1406.38 1008.01 1407.5 1006.65 1408.62 1005.3L1420.21 1014.84C1419.07 1016.22 1417.93 1017.6 1416.78 1018.98ZM1423.62 1010.67L1411.95 1001.21C1413.06 999.848 1414.16 998.479 1415.26 997.106L1426.99 1006.48C1425.87 1007.88 1424.75 1009.28 1423.62 1010.67ZM1430.33 1002.26L1418.53 992.974C1419.62 991.593 1420.7 990.207 1421.78 988.818L1433.65 998.016C1432.55 999.435 1431.44 1000.85 1430.33 1002.26ZM1436.93 993.748L1424.99 984.637C1426.06 983.24 1427.12 981.838 1428.18 980.433L1440.18 989.456C1439.1 990.891 1438.02 992.322 1436.93 993.748ZM1443.4 985.144C1444.46 983.703 1445.53 982.258 1446.58 980.808L1434.45 971.961C1433.41 973.381 1432.37 974.797 1431.33 976.208L1443.4 985.144ZM1449.74 976.449L1437.54 967.691C1438.56 966.263 1439.58 964.832 1440.6 963.397L1452.86 972.065C1451.82 973.53 1450.78 974.992 1449.74 976.449ZM1455.95 967.658L1443.62 959.079C1444.63 957.636 1445.63 956.189 1446.62 954.738L1459.01 963.226C1458 964.707 1456.98 966.184 1455.95 967.658ZM1462.04 958.774L1449.59 950.377C1450.57 948.922 1451.54 947.462 1452.52 945.999L1465.03 954.304C1464.04 955.798 1463.04 957.288 1462.04 958.774ZM1467.99 949.811C1468.97 948.31 1469.94 946.805 1470.91 945.295L1458.28 937.174C1457.33 938.652 1456.38 940.127 1455.41 941.598L1467.99 949.811ZM1473.81 940.757L1461.12 932.728C1462.06 931.243 1462.99 929.753 1463.92 928.26L1476.67 936.195C1475.72 937.72 1474.77 939.24 1473.81 940.757ZM1479.5 931.612L1466.69 923.771C1467.61 922.273 1468.52 920.772 1469.43 919.267L1482.29 927.014C1481.37 928.55 1480.44 930.083 1479.5 931.612ZM1485.05 922.396L1472.13 914.744C1473.02 913.233 1473.91 911.718 1474.8 910.2L1487.77 917.757C1486.87 919.307 1485.96 920.854 1485.05 922.396ZM1490.46 913.096L1477.43 905.635C1478.3 904.109 1479.17 902.58 1480.04 901.048L1493.12 908.414C1492.24 909.978 1491.36 911.539 1490.46 913.096ZM1495.75 903.71L1482.61 896.441C1483.01 895.717 1483.41 894.992 1483.8 894.267C1484.25 893.451 1484.7 892.633 1485.14 891.815L1498.34 898.987C1497.48 900.565 1496.62 902.139 1495.75 903.71ZM1500.89 894.255L1487.64 887.18C1488.47 885.632 1489.29 884.08 1490.1 882.524L1503.4 889.502C1502.57 891.09 1501.73 892.674 1500.89 894.255ZM1505.89 884.728L1492.54 877.849C1493.34 876.287 1494.14 874.722 1494.93 873.153L1508.33 879.934C1507.52 881.535 1506.71 883.133 1505.89 884.728ZM1510.75 875.119L1497.3 868.438C1498.08 866.862 1498.86 865.284 1499.63 863.702L1513.13 870.285C1512.34 871.9 1511.55 873.511 1510.75 875.119ZM1515.47 865.44C1516.24 863.824 1517.01 862.205 1517.77 860.582L1504.18 854.2C1503.43 855.789 1502.68 857.375 1501.92 858.957L1515.47 865.44ZM1520.04 855.706C1520.79 854.077 1521.53 852.445 1522.27 850.809L1508.59 844.628C1507.86 846.23 1507.13 847.828 1506.4 849.423L1520.04 855.706ZM1524.47 845.894L1510.74 839.814C1511.45 838.206 1512.16 836.595 1512.86 834.981L1526.63 840.959C1525.92 842.607 1525.2 844.252 1524.47 845.894ZM1528.76 836.006L1514.94 830.13C1515.63 828.516 1516.31 826.899 1516.98 825.279L1530.84 831.054C1530.16 832.708 1529.46 834.358 1528.76 836.006ZM1532.89 826.084L1518.99 820.412C1519.65 818.787 1520.31 817.158 1520.96 815.527L1534.91 821.096C1534.24 822.761 1533.57 824.424 1532.89 826.084ZM1536.88 816.09L1522.9 810.624C1523.54 808.986 1524.17 807.346 1524.8 805.703L1538.83 811.065C1538.18 812.743 1537.54 814.418 1536.88 816.09ZM1540.73 806.023L1526.67 800.765C1527.28 799.119 1527.89 797.47 1528.49 795.818L1542.6 800.971C1541.98 802.658 1541.36 804.342 1540.73 806.023ZM1544.42 795.919L1530.28 790.87C1530.63 789.885 1530.98 788.898 1531.33 787.911C1531.57 787.243 1531.8 786.574 1532.03 785.905L1546.21 790.85C1545.62 792.542 1545.03 794.232 1544.42 795.919ZM1547.97 785.763L1533.75 780.923C1534.32 779.26 1534.88 777.594 1535.43 775.926L1549.68 780.66C1549.12 782.364 1548.54 784.065 1547.97 785.763ZM1551.36 775.54L1537.08 770.911C1537.42 769.847 1537.76 768.783 1538.1 767.717C1538.3 767.105 1538.49 766.493 1538.69 765.881L1553.01 770.404C1552.46 772.119 1551.92 773.831 1551.36 775.54ZM1554.61 765.269L1540.25 760.852C1540.77 759.177 1541.28 757.499 1541.78 755.819L1556.17 760.129C1555.65 761.845 1555.13 763.559 1554.61 765.269ZM1557.69 754.974L1543.27 750.77C1543.48 750.053 1543.69 749.335 1543.9 748.618C1544.18 747.648 1544.46 746.677 1544.73 745.705L1559.18 749.802C1558.69 751.529 1558.19 753.253 1557.69 754.974ZM1560.63 744.615L1546.15 740.625C1546.62 738.929 1547.08 737.231 1547.54 735.53L1562.04 739.413C1561.58 741.15 1561.11 742.884 1560.63 744.615ZM1563.42 734.195C1563.87 732.464 1564.31 730.73 1564.75 728.993L1550.19 725.325C1549.76 727.026 1549.32 728.724 1548.88 730.42L1563.42 734.195ZM1566.04 723.78L1551.45 720.219C1551.87 718.515 1552.28 716.808 1552.68 715.099L1567.3 718.552C1566.88 720.297 1566.47 722.04 1566.04 723.78ZM1568.51 713.309C1568.91 711.559 1569.31 709.807 1569.7 708.052L1555.03 704.816C1554.65 706.534 1554.27 708.251 1553.87 709.964L1568.51 713.309ZM1570.84 702.781L1556.15 699.653C1556.36 698.674 1556.57 697.694 1556.77 696.713C1556.92 695.97 1557.08 695.226 1557.23 694.482L1571.94 697.501C1571.58 699.263 1571.21 701.023 1570.84 702.781ZM1573 692.242L1558.27 689.331C1558.61 687.612 1558.94 685.89 1559.27 684.166L1574.02 686.968C1573.69 688.728 1573.35 690.486 1573 692.242ZM1575.01 681.682L1560.23 678.989C1560.41 677.996 1560.59 677.003 1560.77 676.009C1560.9 675.272 1561.03 674.535 1561.16 673.798L1575.95 676.382C1575.64 678.151 1575.33 679.917 1575.01 681.682ZM1576.86 671.069L1562.05 668.594C1562.34 666.857 1562.62 665.118 1562.9 663.377L1577.73 665.743C1577.45 667.521 1577.16 669.296 1576.86 671.069ZM1578.56 660.419L1563.71 658.163C1563.98 656.432 1564.23 654.7 1564.48 652.965L1579.35 655.113C1579.09 656.884 1578.83 658.652 1578.56 660.419ZM1580.09 649.794L1565.22 647.756C1565.45 646.017 1565.69 644.277 1565.91 642.534L1580.81 644.464C1580.57 646.243 1580.34 648.019 1580.09 649.794ZM1581.48 639.121L1566.57 637.301C1566.78 635.554 1566.99 633.806 1567.19 632.056L1582.11 633.766C1581.91 635.553 1581.7 637.338 1581.48 639.121ZM1582.71 628.4L1567.77 626.799C1567.96 625.052 1568.14 623.304 1568.32 621.553L1583.26 623.045C1583.08 624.832 1582.9 626.617 1582.71 628.4ZM1583.77 617.707L1568.82 616.324C1568.98 614.579 1569.14 612.832 1569.29 611.083L1584.25 612.357C1584.1 614.142 1583.94 615.925 1583.77 617.707ZM1584.69 606.997L1569.71 605.832C1569.85 604.08 1569.98 602.326 1570.1 600.57L1585.08 601.626C1584.96 603.418 1584.83 605.208 1584.69 606.997ZM1585.44 596.244L1570.46 595.298C1570.51 594.416 1570.57 593.534 1570.62 592.651C1570.67 591.773 1570.72 590.894 1570.77 590.015L1585.76 590.852C1585.66 592.651 1585.56 594.448 1585.44 596.244ZM1586.05 585.478L1571.05 584.75C1571.13 583.003 1571.21 581.253 1571.28 579.503L1586.29 580.123C1586.21 581.91 1586.13 583.695 1586.05 585.478ZM1586.49 574.757L1571.48 574.245C1571.54 572.491 1571.59 570.736 1571.64 568.978L1586.65 569.382C1586.6 571.175 1586.55 572.967 1586.49 574.757ZM1586.78 563.997L1571.76 563.702C1571.8 561.941 1571.83 560.179 1571.85 558.416L1586.86 558.602C1586.84 560.402 1586.81 562.2 1586.78 563.997Z" fill="url(#paint0_radial_1720_3875)" fill-opacity="0.4"/>
<defs>
<radialGradient id="paint0_radial_1720_3875" cx="0" cy="0" r="1" gradientUnits="userSpaceOnUse" gradientTransform="translate(228.415 189.542) rotate(23.941) scale(1813.19)">
<stop offset="0.544159" stop-color="white"/>
<stop offset="1" stop-color="white" stop-opacity="0"/>
</radialGradient>
</defs>
</svg>
