<svg width="234" height="41" viewBox="0 0 234 41" fill="none" xmlns="http://www.w3.org/2000/svg">
<path d="M233 13L226 6M233 13L226 20M233 13H171.5" stroke="white"/>
<path d="M1 13L8 6M1 13L8 20M1 13H62.5" stroke="white"/>
<path d="M137.828 31.7719C138.227 32.6722 137.904 33.7135 137.137 34.2776L127.877 40.3629C126.345 41.3392 124.305 41.1982 122.945 39.9073C118.811 35.9589 113.372 34.2342 113.372 34.2342C111.99 33.8003 110.771 33.2362 109.605 32.1841C108.828 31.4573 107.63 30.6871 106.842 30.0255C104.748 28.3007 102.492 26.7713 100.042 25.654C98.9524 25.1767 98.7473 24.4391 99.2869 23.3544C99.5568 22.812 100.269 22.172 100.863 21.9442C102.201 21.4453 103.529 21.6622 104.77 22.0093C105.536 22.1612 108.731 24.2222 110.22 24.9598C111.504 25.5998 111.839 24.4174 111.85 22.9856C111.85 22.2696 111.645 21.608 111.429 20.9354C109.054 15.0996 106.54 9.318 104.025 3.47131C103.453 2.19133 103.863 0.954742 105.007 0.28221C106.14 -0.31439 107.522 0.0544173 108.256 1.20423C109.292 2.82047 110.263 4.42587 111.299 6.1072C112.206 7.63667 113.188 9.10105 114.095 10.6305L115.25 12.4746C115.25 12.4746 123.452 10.2726 132.162 13.3532C132.637 13.5484 133.036 13.8739 133.187 14.3945C133.975 16.3362 136.037 21.7056 136.22 26.7387C136.436 28.0512 136.814 29.1685 137.019 29.9061L137.828 31.7719Z" fill="white"/>
</svg>
